<?xml version="1.0" encoding="UTF-8"?>
<svg version="1.1" xmlns="http://www.w3.org/2000/svg" width="427" height="335">
<path d="M0 0 C1.33047112 -0.00856522 1.33047112 -0.00856522 2.68782043 -0.01730347 C3.6689682 -0.01842133 4.65011597 -0.01953918 5.66099548 -0.02069092 C6.68882645 -0.02565582 7.71665741 -0.03062073 8.77563477 -0.03573608 C12.19958658 -0.05041817 15.62349187 -0.05717433 19.04747009 -0.06268311 C21.42909751 -0.06843536 23.81072491 -0.07419309 26.19235229 -0.07995605 C31.20371212 -0.0904871 36.21505583 -0.09631408 41.22642517 -0.09979248 C47.6112682 -0.10524193 53.99589413 -0.12918434 60.38066959 -0.15776443 C65.31130563 -0.17651528 70.24189108 -0.18160329 75.17255974 -0.18312836 C77.5233979 -0.18613404 79.87423563 -0.19409108 82.22503853 -0.20731354 C112.34004381 -0.36442379 137.94593891 5.54077031 160.88731384 26.14044189 C161.58211853 26.75274658 162.27692322 27.36505127 162.99278259 27.99591064 C182.08677442 45.87032615 192.81697604 72.26380928 193.88731384 98.14044189 C194.41548535 125.54594107 183.67275122 150.51144429 164.88731384 170.14044189 C164.21313416 170.88938721 163.53895447 171.63833252 162.84434509 172.40997314 C146.19792165 190.24319601 121.76911495 199.63172019 97.67247009 200.73419189 C96.84483154 200.77341766 96.01719299 200.81264343 95.16447449 200.85305786 C81.19289304 201.42014348 67.19427971 201.28978758 53.213974 201.27081299 C48.97647076 201.26509835 44.73903067 201.26841994 40.50152969 201.27438545 C37.18109174 201.27803581 33.86066824 201.27683248 30.5402298 201.27425766 C28.97928103 201.27360167 27.41833084 201.27436894 25.85738373 201.27673721 C15.49502366 201.28902717 5.22188404 200.90519442 -5.11268616 200.14044189 C-5.09190506 199.59238892 -5.07112396 199.04433594 -5.04971313 198.47967529 C-3.05336899 161.99278395 -3.05336899 161.99278395 -19.13661194 130.54766846 C-22.30049548 126.69346884 -24.7892476 122.4631974 -27.36268616 118.20294189 C-28.31661762 116.6819431 -29.27488038 115.16365124 -30.23768616 113.64825439 C-30.93958069 112.54272217 -30.93958069 112.54272217 -31.65565491 111.41485596 C-33.18995354 109.01982814 -34.74217419 106.63729365 -36.30018616 104.25762939 C-36.81419983 103.4712207 -37.3282135 102.68481201 -37.85780334 101.87457275 C-38.83857481 100.37779839 -39.82340979 98.88367637 -40.81288147 97.39263916 C-44.11268616 92.36025328 -44.11268616 92.36025328 -44.11268616 90.14044189 C-40.68642963 90.70665894 -39.36841676 91.62534109 -37.23377991 94.32794189 C-33.85307449 98.37215024 -30.25173012 102.1090834 -26.52284241 105.82794189 C-25.92974274 106.42002441 -25.33664307 107.01210693 -24.72557068 107.62213135 C-22.87739495 109.46354173 -21.02636268 111.30204874 -19.17518616 113.14044189 C-17.90607242 114.4045304 -16.63719027 115.66885145 -15.36854553 116.93341064 C-12.28592296 120.00510913 -9.20018188 123.07364198 -6.11268616 126.14044189 C-2.88611881 124.72341335 -0.7588716 123.02213039 1.7061615 120.51690674 C2.44017181 119.77628998 3.17418213 119.03567322 3.93043518 118.27261353 C4.71284576 117.47360626 5.49525635 116.674599 6.30137634 115.85137939 C7.11222687 115.03295563 7.92307739 114.21453186 8.75849915 113.37130737 C11.34794658 110.7574209 13.93086465 108.13722624 16.51231384 105.51544189 C19.91551898 102.0592784 23.32510868 98.60960663 26.73887634 95.16387939 C27.52533539 94.36082367 28.31179443 93.55776794 29.12208557 92.7303772 C29.84979156 91.99606476 30.57749756 91.26175232 31.32725525 90.50518799 C31.96805023 89.85391937 32.60884521 89.20265076 33.26905823 88.53164673 C34.88731384 87.14044189 34.88731384 87.14044189 36.88731384 87.14044189 C39.18421021 103.21871648 37.76244558 119.95187092 37.38731384 136.14044189 C37.33897285 138.28366737 37.29079467 140.42689653 37.24278259 142.57012939 C37.12616616 147.7602778 37.00735976 152.95037173 36.88731384 158.14044189 C70.09787845 158.20897703 70.09787845 158.20897703 99.88731384 145.14044189 C100.73293884 144.56294189 101.57856384 143.98544189 102.44981384 143.39044189 C108.29927403 137.99094019 110.68463501 131.89502783 111.88731384 124.14044189 C111.60500916 124.62512939 111.32270447 125.10981689 111.03184509 125.60919189 C104.49556564 135.57653886 93.84643823 140.55955424 82.56700134 143.39825439 C58.32779003 148.28726729 58.32779003 148.28726729 48.88731384 145.14044189 C48.55731384 116.76044189 48.22731384 88.38044189 47.88731384 59.14044189 C36.06810078 70.99909697 36.06810078 70.99909697 24.25450134 82.86334229 C22.7573064 84.36346143 21.25992284 85.86339236 19.76231384 87.36309814 C19.00434509 88.12618286 18.24637634 88.88926758 17.46543884 89.67547607 C13.32373806 93.81784401 9.10671172 97.78880778 4.63658142 101.57597351 C2.85686231 103.16767641 1.29851481 104.86922869 -0.30018616 106.64044189 C-3.11268616 109.14044189 -3.11268616 109.14044189 -5.55018616 109.01055908 C-8.46847463 108.0196311 -9.7935112 106.92316757 -11.92518616 104.71856689 C-12.60838928 104.02247314 -13.29159241 103.32637939 -13.99549866 102.60919189 C-14.69417053 101.87700439 -15.39284241 101.14481689 -16.11268616 100.39044189 C-16.81135803 99.67372314 -17.51002991 98.95700439 -18.22987366 98.21856689 C-19.5431631 96.87058679 -20.85227947 95.51851812 -22.15565491 94.16094971 C-24.44843944 91.79379842 -26.78074166 89.46908781 -29.11268616 87.14044189 C-30.18935022 86.06394841 -31.26592388 84.98736451 -32.34242249 83.91070557 C-32.92264664 83.33048141 -33.50287079 82.75025726 -34.10067749 82.15245056 C-42.10468038 74.14844767 -50.10868327 66.14444478 -58.11268616 58.14044189 C-58.11046555 59.43272202 -58.10824493 60.72500214 -58.10595703 62.05644226 C-58.08545182 74.39300688 -58.07058475 86.72956794 -58.06087399 99.0661459 C-58.05571338 105.40447654 -58.04874418 111.74279315 -58.0372467 118.08111572 C-57.98884279 145.45981429 -58.06571622 172.77907806 -59.11268616 200.14044189 C-74.95268616 200.14044189 -90.79268616 200.14044189 -107.11268616 200.14044189 C-107.13523547 175.27167554 -107.15366667 150.40291742 -107.16449833 125.53414345 C-107.16966071 113.98786682 -107.1767023 102.44159698 -107.18812561 90.89532471 C-107.19807422 80.8348542 -107.20454001 70.77438861 -107.20677465 60.71391332 C-107.20808146 55.38404378 -107.21116542 50.05418831 -107.21841621 44.72432327 C-107.22517921 39.71265457 -107.22730254 34.70100579 -107.22579384 29.68933296 C-107.22607004 27.84540639 -107.22807351 26.00147918 -107.23189163 24.15755653 C-107.23683322 21.64902934 -107.2356827 19.14057835 -107.23294067 16.63204956 C-107.23585352 15.89470412 -107.23876636 15.15735868 -107.24176747 14.39766943 C-107.22680737 9.36868432 -107.22680737 9.36868432 -106.11268616 7.14044189 C-90.31297022 4.0066405 -70.38651874 0.46703463 -55.83314514 9.08172607 C-41.38706227 19.2166334 -29.61824844 33.76270417 -18.40589905 47.21490479 C-14.71650227 51.56402292 -10.87631483 55.93858833 -6.11268616 59.14044189 C-3.10854753 59.45375715 -3.10854753 59.45375715 -1.27133179 57.65985107 C-0.58516281 56.96702026 0.10100616 56.27418945 0.80796814 55.56036377 C1.58855087 54.77955444 2.36913361 53.99874512 3.17337036 53.1942749 C4.0109639 52.34119751 4.84855743 51.48812012 5.71153259 50.60919189 C6.5729335 49.74354614 7.43433441 48.87790039 8.32183838 47.98602295 C11.07992549 45.21110136 13.82741841 42.42594566 16.57481384 39.64044189 C18.43936124 37.76085391 20.30458703 35.88193864 22.17051697 34.00372314 C26.7506921 29.39041539 31.32220427 24.76865566 35.88731384 20.14044189 C34.13505903 21.24721787 32.383885 22.35570505 30.63316345 23.46490479 C29.65786179 24.08200821 28.68256012 24.69911163 27.67770386 25.33491516 C24.15754184 27.61264214 20.79607827 30.05513566 17.44981384 32.57794189 C-0.83427115 46.14044189 -0.83427115 46.14044189 -5.11268616 46.14044189 C-5.13795678 39.75006958 -5.15551933 33.35971007 -5.1676178 26.96929932 C-5.17265923 24.79351317 -5.17949223 22.61773043 -5.18812561 20.44195557 C-5.20019954 17.32191123 -5.2059162 14.20191151 -5.21034241 11.08184814 C-5.21550369 10.10268936 -5.22066498 9.12353058 -5.22598267 8.11470032 C-5.2260582 7.21384201 -5.22613373 6.3129837 -5.22621155 5.38482666 C-5.22843216 4.58762711 -5.23065277 3.79042755 -5.23294067 2.96907043 C-5.00127099 -0.55377273 -3.04906043 0.01170727 0 0 Z " fill="#230A33" transform="translate(180.11268615722656,50.85955810546875)"/>
<path d="M0 0 C15.79971594 -3.13380139 35.72616742 -6.67340726 50.27954102 1.94128418 C64.72562388 12.07619151 76.49443772 26.62226227 87.70678711 40.07446289 C91.39618389 44.42358102 95.23637133 48.79814644 100 52 C103.01895789 52.31332756 103.01895789 52.31332756 104.91055298 50.46366882 C105.62923553 49.74435684 106.34791809 49.02504486 107.08837891 48.28393555 C107.90577545 47.47276779 108.723172 46.66160004 109.56533813 45.82585144 C110.44354218 44.93843765 111.32174622 44.05102386 112.2265625 43.13671875 C113.12998383 42.23379593 114.03340515 41.33087311 114.96420288 40.40058899 C116.87599791 38.48644978 118.78459947 36.56966684 120.68847656 34.64770508 C123.12913972 32.1843707 125.58070272 29.73224436 128.03609657 27.28360271 C130.37565601 24.94818896 132.70712557 22.60474005 135.0390625 20.26171875 C135.921315 19.38037766 136.8035675 18.49903656 137.71255493 17.59098816 C138.52364716 16.77036392 139.33473938 15.94973969 140.17041016 15.10424805 C140.88750153 14.38254929 141.6045929 13.66085052 142.34341431 12.9172821 C144.21103333 11.00182876 144.21103333 11.00182876 145 8 C149.13186261 3.54269385 153.26363378 0.61279079 159.41210938 0.18945312 C161.38955181 0.18387677 163.36737426 0.21606852 165.34375 0.28125 C166.91920593 0.29254944 166.91920593 0.29254944 168.52648926 0.30407715 C171.85237996 0.33640102 175.17500178 0.418056 178.5 0.5 C180.76298631 0.52656239 183.02601118 0.55003074 185.2890625 0.5703125 C189.40086795 0.62050326 193.5121083 0.67605138 197.62304688 0.77539062 C198.85806946 0.80372986 198.85806946 0.80372986 200.11804199 0.8326416 C202 1 202 1 203 2 C203.10809116 3.58113613 203.14684044 5.16706062 203.15821838 6.75184631 C203.17290161 8.2936985 203.17290161 8.2936985 203.18788147 9.86669922 C203.19363693 11.00389404 203.1993924 12.14108887 203.20532227 13.31274414 C203.21522186 14.50282578 203.22512146 15.69290741 203.23532104 16.91905212 C203.26157103 20.19160309 203.28340731 23.46414865 203.30332303 26.73674321 C203.32514533 30.15341561 203.35255233 33.57004297 203.37937927 36.98667908 C203.42935712 43.46065999 203.47427698 49.93466584 203.51740164 56.40869564 C203.56673059 63.77741119 203.62166477 71.14608157 203.67708123 78.51475346 C203.79097941 93.67646023 203.89780129 108.83820952 204 124 C204.99 123.67 205.98 123.34 207 123 C208.2375 122.7834375 208.2375 122.7834375 209.5 122.5625 C212.23091369 122.1049928 212.23091369 122.1049928 215 120 C212.27168634 126.76147298 204.67248398 130.48535458 198.25 133.25 C186.20128024 137.66407501 167.66606669 142.22202223 155 138 C154.67 109.62 154.34 81.24 154 52 C142.18078694 63.85865508 142.18078694 63.85865508 130.3671875 75.72290039 C128.86999256 77.22301954 127.372609 78.72295047 125.875 80.22265625 C125.11703125 80.98574097 124.3590625 81.74882568 123.578125 82.53503418 C119.43642422 86.67740212 115.21939787 90.64836588 110.74926758 94.43553162 C108.96954847 96.02723452 107.41120097 97.72878679 105.8125 99.5 C103 102 103 102 100.5625 101.87011719 C97.64421153 100.8791892 96.31917496 99.78272568 94.1875 97.578125 C93.50429687 96.88203125 92.82109375 96.1859375 92.1171875 95.46875 C91.41851562 94.7365625 90.71984375 94.004375 90 93.25 C89.30132812 92.53328125 88.60265625 91.8165625 87.8828125 91.078125 C86.56952306 89.73014489 85.26040668 88.37807623 83.95703125 87.02050781 C81.66424672 84.65335652 79.3319445 82.32864592 77 80 C75.92333594 78.92350652 74.84676227 77.84692262 73.77026367 76.77026367 C73.19003952 76.19003952 72.60981537 75.60981537 72.01200867 75.01200867 C64.00800578 67.00800578 56.00400289 59.00400289 48 51 C48.00222061 52.29228012 48.00444122 53.58456024 48.00672913 54.91600037 C48.02723434 67.25256499 48.0421014 79.58912604 48.05181217 91.925704 C48.05697278 98.26403465 48.06394197 104.60235126 48.07543945 110.94067383 C48.12384336 138.3193724 48.04696993 165.63863616 47 193 C31.16 193 15.32 193 -1 193 C-1.02254931 168.13123364 -1.04098052 143.26247553 -1.05181217 118.39370155 C-1.05697455 106.84742492 -1.06401614 95.30115508 -1.07543945 83.75488281 C-1.08538806 73.69441231 -1.09185385 63.63394672 -1.09408849 53.57347143 C-1.0953953 48.24360189 -1.09847926 42.91374642 -1.10573006 37.58388138 C-1.11249305 32.57221268 -1.11461638 27.5605639 -1.11310768 22.54889107 C-1.11338388 20.70496449 -1.11538735 18.86103728 -1.11920547 17.01711464 C-1.12414706 14.50858744 -1.12299654 12.00013646 -1.12025452 9.49160767 C-1.12316736 8.75426222 -1.1260802 8.01691678 -1.12908131 7.25722754 C-1.11412121 2.22824242 -1.11412121 2.22824242 0 0 Z " fill="#641C99" transform="translate(74,58)"/>
<path d="M0 0 C1.69867523 0.9751016 3.34835906 2.03449916 4.98828125 3.10546875 C4.98828125 4.42546875 4.98828125 5.74546875 4.98828125 7.10546875 C2.98828125 8.85546875 2.98828125 8.85546875 0.98828125 10.10546875 C0.32828125 9.77546875 -0.33171875 9.44546875 -1.01171875 9.10546875 C-2.38514706 9.03652155 -3.76173977 9.02079167 -5.13671875 9.04296875 C-7.05484375 9.07390625 -7.05484375 9.07390625 -9.01171875 9.10546875 C-9.01171875 9.76546875 -9.01171875 10.42546875 -9.01171875 11.10546875 C-8.02429688 11.564375 -7.036875 12.02328125 -6.01953125 12.49609375 C-4.72495176 13.11524046 -3.43069768 13.73506789 -2.13671875 14.35546875 C-1.16025391 14.80599609 -1.16025391 14.80599609 -0.1640625 15.265625 C2.54318518 16.57738419 4.63831585 17.61609406 6.41015625 20.09375 C7.37599146 23.4545955 7.54028007 26.67762424 6.98828125 30.10546875 C5.24579935 33.07414162 3.77551473 34.61923631 0.86328125 36.41796875 C-5.46539406 37.93134763 -11.67013171 37.18488782 -18.01171875 36.10546875 C-18.71039063 36.21117187 -19.4090625 36.316875 -20.12890625 36.42578125 C-22.75878575 36.77111896 -24.46007239 36.88244065 -27.01171875 36.10546875 C-30.10666531 32.65908137 -34.01171875 27.92492971 -34.01171875 23.10546875 C-36.04176747 24.78812945 -36.92808838 25.71473671 -37.48828125 28.33203125 C-37.53726562 29.12351562 -37.58625 29.915 -37.63671875 30.73046875 C-37.92838542 35.02213542 -37.92838542 35.02213542 -39.01171875 36.10546875 C-41.68230726 36.24662036 -44.33604113 36.14793982 -47.01171875 36.10546875 C-47.17895986 31.13943162 -47.33955658 26.17324197 -47.49389648 21.20678711 C-47.5473899 19.51597252 -47.60272473 17.82521517 -47.65991211 16.13452148 C-47.74161916 13.70959828 -47.8167827 11.28454881 -47.890625 8.859375 C-47.91766006 8.09895401 -47.94469513 7.33853302 -47.97254944 6.55506897 C-48.02463174 4.73923541 -48.0235846 2.92201032 -48.01171875 1.10546875 C-47.01171875 0.10546875 -47.01171875 0.10546875 -45.19921875 -0.02734375 C-44.47734375 -0.02476562 -43.75546875 -0.0221875 -43.01171875 -0.01953125 C-42.28984375 -0.02210938 -41.56796875 -0.0246875 -40.82421875 -0.02734375 C-39.01171875 0.10546875 -39.01171875 0.10546875 -38.01171875 1.10546875 C-37.77884867 2.78730823 -37.59907709 4.47671035 -37.44921875 6.16796875 C-37.36542969 7.08707031 -37.28164063 8.00617188 -37.1953125 8.953125 C-37.13472656 9.66339844 -37.07414062 10.37367188 -37.01171875 11.10546875 C-36.53863281 10.31140625 -36.06554687 9.51734375 -35.578125 8.69921875 C-30.24117648 0.45971928 -30.24117648 0.45971928 -26.4765625 -0.625 C-24.22907262 -0.5858203 -22.20051998 -0.39613153 -20.01171875 0.10546875 C-19.68171875 0.76546875 -19.35171875 1.42546875 -19.01171875 2.10546875 C-19.67300781 2.9253125 -20.33429688 3.74515625 -21.015625 4.58984375 C-21.86915681 5.67786232 -22.72198504 6.7664331 -23.57421875 7.85546875 C-24.01185547 8.39429688 -24.44949219 8.933125 -24.90039062 9.48828125 C-27.3219373 12.49776881 -27.3219373 12.49776881 -27.98046875 16.17578125 C-26.75516019 18.61651686 -25.40759269 20.92051475 -23.94921875 23.23046875 C-21.01171875 27.88899816 -21.01171875 27.88899816 -21.01171875 30.10546875 C-19.89796875 29.08453125 -19.89796875 29.08453125 -18.76171875 28.04296875 C-16.01171875 26.10546875 -16.01171875 26.10546875 -13.82421875 26.29296875 C-12.54019306 26.86856647 -11.2703004 27.47617792 -10.01171875 28.10546875 C-7.67873215 28.14569266 -5.34465209 28.14867122 -3.01171875 28.10546875 C-3.01171875 27.11546875 -3.01171875 26.12546875 -3.01171875 25.10546875 C-4.25888672 24.50798828 -4.25888672 24.50798828 -5.53125 23.8984375 C-6.61792969 23.36863281 -7.70460938 22.83882813 -8.82421875 22.29296875 C-9.90316406 21.77089844 -10.98210937 21.24882812 -12.09375 20.7109375 C-14.6161244 19.32312508 -16.29295364 18.37607817 -18.01171875 16.10546875 C-19.53716123 9.34993778 -19.53716123 9.34993778 -17.82421875 5.29296875 C-13.30566854 -0.16045391 -6.96643556 -3.09769659 0 0 Z " fill="#4A3757" transform="translate(337.01171875,284.89453125)"/>
<path d="M0 0 C3.5625 0.1875 3.5625 0.1875 5.5625 2.1875 C6.06494141 4.25048828 6.06494141 4.25048828 6.4140625 6.7578125 C6.54296875 7.65371094 6.671875 8.54960937 6.8046875 9.47265625 C6.93101562 10.40980469 7.05734375 11.34695313 7.1875 12.3125 C7.3215625 13.25738281 7.455625 14.20226562 7.59375 15.17578125 C7.9241356 17.51207945 8.2467175 19.84919071 8.5625 22.1875 C8.67319824 21.59211426 8.78389648 20.99672852 8.89794922 20.38330078 C9.40309772 17.69145324 9.92014225 15.00202646 10.4375 12.3125 C10.61152344 11.37535156 10.78554687 10.43820312 10.96484375 9.47265625 C11.13886719 8.57675781 11.31289062 7.68085938 11.4921875 6.7578125 C11.64929199 5.93039551 11.80639648 5.10297852 11.96826172 4.25048828 C12.5625 2.1875 12.5625 2.1875 14.5625 0.1875 C17.5625 -0.125 17.5625 -0.125 20.5625 0.1875 C22.81188708 3.56158063 23.44466443 6.60011325 24.1875 10.5 C24.3215625 11.15162109 24.455625 11.80324219 24.59375 12.47460938 C25.37048947 16.43360289 25.69995625 20.15753257 25.5625 24.1875 C26.2225 24.1875 26.8825 24.1875 27.5625 24.1875 C27.52125 23.176875 27.48 22.16625 27.4375 21.125 C27.42546492 14.45756747 28.42919103 7.7474563 29.5625 1.1875 C30.5625 0.1875 30.5625 0.1875 34.0625 0.0625 C37.5625 0.1875 37.5625 0.1875 38.5625 1.1875 C38.36142278 8.56548706 36.84661667 15.93875447 35.5625 23.1875 C35.38460937 24.22261719 35.20671875 25.25773437 35.0234375 26.32421875 C33.69114688 33.93020624 33.69114688 33.93020624 32.5625 36.1875 C29.2625 36.1875 25.9625 36.1875 22.5625 36.1875 C20.31769358 30.57548394 18.72901426 25.11613717 17.5625 19.1875 C17.2325 19.1875 16.9025 19.1875 16.5625 19.1875 C16.36914062 20.24710937 16.17578125 21.30671875 15.9765625 22.3984375 C15.71394936 23.78653553 15.45090614 25.17455224 15.1875 26.5625 C15.06117188 27.26117188 14.93484375 27.95984375 14.8046875 28.6796875 C13.7890625 33.9609375 13.7890625 33.9609375 11.5625 36.1875 C9.6875 36.453125 9.6875 36.453125 7.5625 36.4375 C6.86125 36.44265625 6.16 36.4478125 5.4375 36.453125 C3.5625 36.1875 3.5625 36.1875 1.5625 34.1875 C0.98226294 32.15994846 0.4941131 30.1056237 0.0546875 28.04296875 C-0.20957031 26.80869141 -0.47382813 25.57441406 -0.74609375 24.30273438 C-0.87999512 23.65780029 -1.01389648 23.01286621 -1.15185547 22.34838867 C-1.55915811 20.39105975 -1.98069587 18.43671075 -2.40234375 16.48242188 C-4.71937921 5.51930581 -4.71937921 5.51930581 -4.4375 1.1875 C-3.4375 0.1875 -3.4375 0.1875 0 0 Z " fill="#402D4E" transform="translate(184.4375,284.8125)"/>
<path d="M0 0 C1.23556641 0.01740234 1.23556641 0.01740234 2.49609375 0.03515625 C3.32238281 0.04417969 4.14867188 0.05320312 5 0.0625 C5.63808594 0.07410156 6.27617188 0.08570313 6.93359375 0.09765625 C7.25972656 0.88269531 7.58585937 1.66773438 7.921875 2.4765625 C8.57736328 4.05244141 8.57736328 4.05244141 9.24609375 5.66015625 C9.88998047 7.20896484 9.88998047 7.20896484 10.546875 8.7890625 C11.99055348 12.23355734 13.45821453 15.66664241 14.93359375 19.09765625 C15.11011475 18.55761963 15.28663574 18.01758301 15.46850586 17.46118164 C16.2662587 15.02647461 17.06861254 12.59330867 17.87109375 10.16015625 C18.14888672 9.31001953 18.42667969 8.45988281 18.71289062 7.58398438 C18.98037109 6.77509766 19.24785156 5.96621094 19.5234375 5.1328125 C19.76956787 4.38394775 20.01569824 3.63508301 20.26928711 2.86352539 C20.93359375 1.09765625 20.93359375 1.09765625 21.93359375 0.09765625 C27.66970486 -0.1754919 27.66970486 -0.1754919 29.93359375 0.09765625 C31.93359375 2.09765625 31.93359375 2.09765625 32.06884766 5.44580078 C32.02650433 6.87437528 31.97283922 8.30264211 31.91015625 9.73046875 C31.87261734 10.8582222 31.87261734 10.8582222 31.83432007 12.00875854 C31.75204286 14.41384464 31.65548514 16.81811882 31.55859375 19.22265625 C31.50036195 20.85152916 31.4430585 22.48043555 31.38671875 24.109375 C31.24645297 28.10593707 31.09337632 32.10182879 30.93359375 36.09765625 C28.600646 36.14007348 26.26656808 36.13858562 23.93359375 36.09765625 C22.93359375 35.09765625 22.93359375 35.09765625 22.8359375 31.28125 C22.84261286 29.69918943 22.854575 28.11714466 22.87109375 26.53515625 C22.87560547 25.72884766 22.88011719 24.92253906 22.88476562 24.09179688 C22.89658857 22.09371869 22.91452461 20.09567842 22.93359375 18.09765625 C20.95359375 23.04765625 18.97359375 27.99765625 16.93359375 33.09765625 C15.28359375 33.09765625 13.63359375 33.09765625 11.93359375 33.09765625 C11.58425781 32.24300781 11.23492187 31.38835937 10.875 30.5078125 C10.41996094 29.40308594 9.96492188 28.29835938 9.49609375 27.16015625 C9.04363281 26.05800781 8.59117188 24.95585937 8.125 23.8203125 C7.18934767 21.23196709 7.18934767 21.23196709 5.93359375 20.09765625 C5.94519531 21.16886719 5.95679687 22.24007813 5.96875 23.34375 C5.97812674 24.74088368 5.98722706 26.13801924 5.99609375 27.53515625 C6.00447266 28.24220703 6.01285156 28.94925781 6.02148438 29.67773438 C6.03012963 31.48459184 5.98579386 33.29153228 5.93359375 35.09765625 C4.93359375 36.09765625 4.93359375 36.09765625 1.37109375 36.16015625 C0.23671875 36.13953125 -0.89765625 36.11890625 -2.06640625 36.09765625 C-2.23364736 31.13161912 -2.39424408 26.16542947 -2.54858398 21.19897461 C-2.6020774 19.50816002 -2.65741223 17.81740267 -2.71459961 16.12670898 C-2.79630666 13.70178578 -2.8714702 11.27673631 -2.9453125 8.8515625 C-2.97234756 8.09114151 -2.99938263 7.33072052 -3.02723694 6.54725647 C-3.07931924 4.73142291 -3.0782721 2.91419782 -3.06640625 1.09765625 C-2.06640625 0.09765625 -2.06640625 0.09765625 0 0 Z " fill="#655571" transform="translate(107.06640625,284.90234375)"/>
<path d="M0 0 C4.80573582 2.61707707 7.09652397 6.22707191 8.8125 11.375 C9.48378346 18.80313666 9.39675468 25.2380139 4.8125 31.375 C0.14504314 35.81477604 -3.66217532 36.68107211 -9.90625 36.58984375 C-14.48521614 36.1586055 -17.29151314 34.29587539 -20.4375 31.0625 C-24.2888142 25.14798177 -25.01960218 19.2918494 -24.1875 12.375 C-22.81319558 7.36972083 -21.17410522 4.18039201 -17.125 0.875 C-11.24539726 -2.12735034 -6.10981795 -2.74713829 0 0 Z M-13.0625 9.1875 C-15.22167713 13.38589998 -15.50508446 16.69062922 -15.1875 21.375 C-13.60522398 25.68343924 -13.60522398 25.68343924 -10.1875 28.375 C-7.22961431 28.7917552 -7.22961431 28.7917552 -4.1875 28.375 C-0.93136456 25.11886456 -0.23161577 22.05879443 0.0625 17.5 C0.02387409 13.30522597 -1.17242125 10.39007875 -4.1875 7.375 C-9.09390166 6.75178318 -9.09390166 6.75178318 -13.0625 9.1875 Z " fill="#240E34" transform="translate(247.1875,285.625)"/>
<path d="M0 0 C0.81210937 -0.020625 1.62421875 -0.04125 2.4609375 -0.0625 C7.24886166 -0.09369169 10.35774453 0.16502715 14.25 3.25 C14.83910156 3.70632813 15.42820312 4.16265625 16.03515625 4.6328125 C18.16502087 7.46806637 17.7045139 10.39340216 17.625 13.8125 C17.11583152 17.12209515 15.46674625 18.81872992 13.25 21.25 C13.7486765 24.99786556 15.63973152 28.06512499 17.41015625 31.34765625 C18.25 33.25 18.25 33.25 18.25 36.25 C15.28 36.25 12.31 36.25 9.25 36.25 C8.24491199 34.46118264 7.24607264 32.66885304 6.25 30.875 C5.4146875 29.37839844 5.4146875 29.37839844 4.5625 27.8515625 C3.25 25.25 3.25 25.25 3.25 23.25 C2.26 23.58 1.27 23.91 0.25 24.25 C-0.08 28.21 -0.41 32.17 -0.75 36.25 C-6.90234375 36.34765625 -6.90234375 36.34765625 -8.75 36.25 C-10.4829298 34.5170702 -9.87820046 32.28785664 -9.88894653 29.97851562 C-9.8869223 29.24310547 -9.88489807 28.50769531 -9.8828125 27.75 C-9.88376923 26.99912109 -9.88472595 26.24824219 -9.88571167 25.47460938 C-9.88639338 23.88411373 -9.88453972 22.29361533 -9.88037109 20.703125 C-9.87502267 18.26035345 -9.88031634 15.81776579 -9.88671875 13.375 C-9.88605797 11.83333293 -9.8847768 10.29166597 -9.8828125 8.75 C-9.88483673 8.01458984 -9.88686096 7.27917969 -9.88894653 6.52148438 C-9.85269186 -1.26967903 -6.93671467 0.04321941 0 0 Z M0.25 8.25 C-1.16577477 9.43424326 -1.16577477 9.43424326 -0.8125 12.8125 C-0.791875 13.946875 -0.77125 15.08125 -0.75 16.25 C1.89 16.25 4.53 16.25 7.25 16.25 C7.91 14.6 8.57 12.95 9.25 11.25 C6.47132308 8.47132308 4.0786708 8.59806098 0.25 8.25 Z " fill="#281238" transform="translate(268.75,284.75)"/>
<path d="M0 0 C4.78126535 1.84160853 6.75399753 4.63199568 9.25 9 C10.76762537 14.69109514 10.53534207 19.99828522 8.875 25.625 C6.50575103 29.65272325 3.83523295 32.76794049 -0.70703125 34.44140625 C-4.05080884 34.98256276 -7.37396246 34.9164825 -10.75 34.875 C-11.44738281 34.87048828 -12.14476562 34.86597656 -12.86328125 34.86132812 C-14.57555803 34.8496002 -16.28779033 34.83166653 -18 34.8125 C-19.50606515 31.80036971 -19.12160331 28.69967378 -19.09765625 25.3984375 C-19.0962413 24.66879791 -19.09482635 23.93915833 -19.09336853 23.18740845 C-19.08776531 20.85406415 -19.07521235 18.52081536 -19.0625 16.1875 C-19.05748541 14.60677222 -19.05292243 13.02604293 -19.04882812 11.4453125 C-19.03779484 7.56767146 -19.02052811 3.69010193 -19 -0.1875 C-13.62379347 -2.87560327 -5.5984644 -1.648799 0 0 Z M-9 6.8125 C-10.20495909 7.79657311 -10.20495909 7.79657311 -10.11352539 9.67016602 C-10.10828857 10.46092529 -10.10305176 11.25168457 -10.09765625 12.06640625 C-10.09443359 12.92041016 -10.09121094 13.77441406 -10.08789062 14.65429688 C-10.07951172 15.55212891 -10.07113281 16.44996094 -10.0625 17.375 C-10.05798828 18.27669922 -10.05347656 19.17839844 -10.04882812 20.10742188 C-10.03700225 22.34251314 -10.0205222 24.57747437 -10 26.8125 C-5.61338809 27.05757539 -5.61338809 27.05757539 -1.6875 25.375 C0.75674178 21.66337359 1.18090261 18.21708536 1 13.8125 C0.20572041 10.79299847 0.20572041 10.79299847 -2 8.8125 C-5.57996259 7.44349646 -5.57996259 7.44349646 -9 6.8125 Z " fill="#372246" transform="translate(162,286.1875)"/>
<path d="M0 0 C2.29689637 16.07827459 0.87513174 32.81142903 0.5 49 C0.45165901 51.14322548 0.40348082 53.28645463 0.35546875 55.4296875 C0.23915146 60.61984526 0.11950863 65.80991088 0 71 C8.25 71 16.5 71 25 71 C25 71.33 25 71.66 25 72 C16.42 72 7.84 72 -1 72 C-1.33 49.23 -1.66 26.46 -2 3 C-7.89875 8.878125 -13.7975 14.75625 -19.875 20.8125 C-21.73624512 22.66464111 -23.59749023 24.51678223 -25.51513672 26.42504883 C-26.98685226 27.89384399 -28.45838195 29.3628254 -29.9296875 30.83203125 C-30.69676025 31.59398804 -31.46383301 32.35594482 -32.25415039 33.14099121 C-32.98480713 33.8715271 -33.71546387 34.60206299 -34.46826172 35.35473633 C-35.10335663 35.98761063 -35.73845154 36.62048492 -36.39279175 37.27253723 C-38.1911929 39.11275172 -38.1911929 39.11275172 -40 42 C-42.625 42.6875 -42.625 42.6875 -45 43 C-45 43.66 -45 44.32 -45 45 C-45.804375 45.12375 -46.60875 45.2475 -47.4375 45.375 C-48.283125 45.58125 -49.12875 45.7875 -50 46 C-51.24546405 48.49092811 -50.7767578 49.41080733 -50 52 C-52.56879045 49.64311314 -54.29534622 47.12501044 -56.1171875 44.16015625 C-56.71845459 43.18836426 -57.31972168 42.21657227 -57.93920898 41.21533203 C-58.57802002 40.17489746 -59.21683105 39.13446289 -59.875 38.0625 C-65.49406207 28.97257751 -71.2157209 19.96615342 -77.13818359 11.07055664 C-77.64816895 10.29703857 -78.1581543 9.52352051 -78.68359375 8.7265625 C-79.13275146 8.05189941 -79.58190918 7.37723633 -80.04467773 6.68212891 C-81 5 -81 5 -81 3 C-77.57374347 3.56621704 -76.25573061 4.4848992 -74.12109375 7.1875 C-70.74038833 11.23170835 -67.13904396 14.9686415 -63.41015625 18.6875 C-62.81705658 19.27958252 -62.22395691 19.87166504 -61.61288452 20.48168945 C-59.76470879 22.32309984 -57.91367652 24.16160685 -56.0625 26 C-54.79338627 27.2640885 -53.52450411 28.52840956 -52.25585938 29.79296875 C-49.1732368 32.86466724 -46.08749572 35.93320008 -43 39 C-39.77343266 37.58297146 -37.64618545 35.88168849 -35.18115234 33.37646484 C-34.44714203 32.63584808 -33.71313171 31.89523132 -32.95687866 31.13217163 C-31.78326279 29.93366074 -31.78326279 29.93366074 -30.5859375 28.7109375 C-29.77508698 27.89251373 -28.96423645 27.07408997 -28.1288147 26.23086548 C-25.53936726 23.616979 -22.9564492 20.99678434 -20.375 18.375 C-16.97179487 14.91883651 -13.56220516 11.46916474 -10.1484375 8.0234375 C-9.36197845 7.22038177 -8.57551941 6.41732605 -7.76522827 5.5899353 C-7.03752228 4.85562286 -6.30981628 4.12131042 -5.56005859 3.36474609 C-4.91926361 2.71347748 -4.27846863 2.06220886 -3.61825562 1.39120483 C-2 0 -2 0 0 0 Z " fill="#7C6D86" transform="translate(217,138)"/>
<path d="M0 0 C0.92232422 0.06960938 0.92232422 0.06960938 1.86328125 0.140625 C2.19328125 0.800625 2.52328125 1.460625 2.86328125 2.140625 C-1.62109375 7.90625 -1.62109375 7.90625 -4.88671875 9.390625 C-7.35089548 10.92015327 -7.35089548 10.92015327 -7.63671875 13.47265625 C-7.80091788 15.26601858 -7.92211194 17.0639379 -7.99609375 18.86328125 C-8.13671875 21.140625 -8.13671875 21.140625 -9.13671875 23.140625 C-8.47671875 23.470625 -7.81671875 23.800625 -7.13671875 24.140625 C-7.79671875 24.800625 -8.45671875 25.460625 -9.13671875 26.140625 C-9.79671875 24.820625 -10.45671875 23.500625 -11.13671875 22.140625 C-13.07746736 22.41680033 -13.07746736 22.41680033 -15.13671875 23.140625 C-17.16022199 26.17587986 -17.45795893 27.33488702 -17.76171875 30.828125 C-17.83648437 31.63636719 -17.91125 32.44460938 -17.98828125 33.27734375 C-18.03726562 33.89222656 -18.08625 34.50710938 -18.13671875 35.140625 C-20.11671875 35.140625 -22.09671875 35.140625 -24.13671875 35.140625 C-24.13671875 23.920625 -24.13671875 12.700625 -24.13671875 1.140625 C-22.15671875 1.140625 -20.17671875 1.140625 -18.13671875 1.140625 C-18.13671875 5.760625 -18.13671875 10.380625 -18.13671875 15.140625 C-17.14671875 15.140625 -16.15671875 15.140625 -15.13671875 15.140625 C-15.05421875 14.439375 -14.97171875 13.738125 -14.88671875 13.015625 C-13.95656677 9.45004242 -12.28881239 7.11557797 -10.13671875 4.140625 C-9.74484375 3.356875 -9.35296875 2.573125 -8.94921875 1.765625 C-6.21033259 -0.68992811 -3.55506727 -0.15875899 0 0 Z " fill="#2E183C" transform="translate(315.13671875,284.859375)"/>
<path d="M0 0 C0.95746628 -0.0030011 1.91493256 -0.0060022 2.90141296 -0.00909424 C3.92757217 0.00325256 4.95373138 0.01559937 6.01098633 0.02832031 C7.06836502 0.03019348 8.12574371 0.03206665 9.21516418 0.03399658 C11.44686035 0.04071325 13.67854482 0.05462006 15.91015625 0.07519531 C19.34036091 0.10642113 22.77010659 0.11617331 26.20043945 0.12207031 C28.36646073 0.1312373 30.5324773 0.1416121 32.69848633 0.15332031 C33.73071823 0.15757019 34.76295013 0.16182007 35.82646179 0.16619873 C37.24847649 0.18061005 37.24847649 0.18061005 38.69921875 0.1953125 C39.53764816 0.2021405 40.37607758 0.20896851 41.23991394 0.21600342 C43.15551758 0.35644531 43.15551758 0.35644531 44.15551758 1.35644531 C44.26360874 2.93758144 44.30235801 4.52350593 44.31373596 6.10829163 C44.32352478 7.13619308 44.3333136 8.16409454 44.34339905 9.22314453 C44.35203224 10.92893677 44.35203224 10.92893677 44.36083984 12.66918945 C44.37073944 13.85927109 44.38063904 15.04935272 44.39083862 16.27549744 C44.41708861 19.54804841 44.43892489 22.82059396 44.45884061 26.09318852 C44.4806629 29.50986092 44.50806991 32.92648828 44.53489685 36.34312439 C44.5848747 42.81710531 44.62979456 49.29111115 44.67291921 55.76514095 C44.72224817 63.1338565 44.77718235 70.50252688 44.83259881 77.87119877 C44.94649698 93.03290554 45.05331887 108.19465483 45.15551758 123.35644531 C46.14551758 123.02644531 47.13551758 122.69644531 48.15551758 122.35644531 C48.98051758 122.21207031 49.80551758 122.06769531 50.65551758 121.91894531 C53.38643126 121.46143811 53.38643126 121.46143811 56.15551758 119.35644531 C54.69488011 123.73835772 51.14349054 126.30356472 47.15551758 128.35644531 C45.83551758 128.35644531 44.51551758 128.35644531 43.15551758 128.35644531 C41.90872374 125.86285764 42.03244438 124.19890941 42.03526306 121.40841675 C42.0338884 120.36231232 42.03251373 119.31620789 42.03109741 118.23840332 C42.03649033 116.50995178 42.03649033 116.50995178 42.04199219 114.74658203 C42.04184616 113.53684723 42.04170013 112.32711243 42.04154968 111.08071899 C42.04212802 107.7586051 42.04715203 104.43655294 42.05412364 101.11444998 C42.0603642 97.64442723 42.06096153 94.17440371 42.06214905 90.70437622 C42.06526029 84.13123133 42.07347089 77.55810302 42.08349854 70.98496544 C42.0946661 63.50259698 42.10017175 56.02022773 42.10519397 48.537853 C42.11565367 33.14404083 42.13324911 17.75024521 42.15551758 2.35644531 C35.96208509 2.42528658 29.76933002 2.51323676 23.57641602 2.61889648 C21.4697216 2.65214813 19.36293804 2.68017931 17.25610352 2.70288086 C14.22739683 2.73642214 11.1995072 2.78873822 8.17114258 2.84472656 C7.22934143 2.85111649 6.28754028 2.85750641 5.31719971 2.86408997 C4.43658875 2.88388412 3.55597778 2.90367828 2.64868164 2.92407227 C1.4895224 2.94072685 1.4895224 2.94072685 0.3069458 2.9577179 C-2.36815512 3.45349836 -3.80096005 4.60557244 -5.84448242 6.35644531 C-5.84448242 5.69644531 -5.84448242 5.03644531 -5.84448242 4.35644531 C-6.83448242 4.02644531 -7.82448242 3.69644531 -8.84448242 3.35644531 C-5.82458335 0.7271031 -3.99083053 -0.01730353 0 0 Z " fill="#541986" transform="translate(232.844482421875,58.6435546875)"/>
<path d="M0 0 C0.721875 0.00257813 1.44375 0.00515625 2.1875 0.0078125 C2.909375 0.00523437 3.63125 0.00265625 4.375 0 C6.1875 0.1328125 6.1875 0.1328125 7.1875 1.1328125 C7.42277773 3.48268512 7.60136417 5.83837289 7.75 8.1953125 C7.83378906 9.48566406 7.91757812 10.77601563 8.00390625 12.10546875 C8.06449219 13.10449219 8.12507813 14.10351562 8.1875 15.1328125 C7.1975 15.1328125 6.2075 15.1328125 5.1875 15.1328125 C5.1875 10.5128125 5.1875 5.8928125 5.1875 1.1328125 C3.2075 1.1328125 1.2275 1.1328125 -0.8125 1.1328125 C-0.8125 12.3528125 -0.8125 23.5728125 -0.8125 35.1328125 C1.1675 35.1328125 3.1475 35.1328125 5.1875 35.1328125 C5.15269531 34.52953125 5.11789062 33.92625 5.08203125 33.3046875 C4.86173271 26.80063544 4.86173271 26.80063544 6.4375 23.5703125 C8.1875 22.1328125 8.1875 22.1328125 12.1875 22.1328125 C12.8475 23.1228125 13.5075 24.1128125 14.1875 25.1328125 C14.1875 23.8128125 14.1875 22.4928125 14.1875 21.1328125 C14.33751445 19.21477065 14.50509684 17.29804564 14.6875 15.3828125 C14.82671875 13.90554688 14.82671875 13.90554688 14.96875 12.3984375 C15.0409375 11.65078125 15.113125 10.903125 15.1875 10.1328125 C16.8375 9.4728125 18.4875 8.8128125 20.1875 8.1328125 C19.878125 8.6896875 19.56875 9.2465625 19.25 9.8203125 C18.05918249 12.4120918 17.41794365 14.27695726 17.1875 17.1328125 C18.58206527 20.04394536 18.58206527 20.04394536 20.625 22.8203125 C24.1875 27.97234283 24.1875 27.97234283 24.1875 30.1328125 C25.30125 29.111875 25.30125 29.111875 26.4375 28.0703125 C29.1875 26.1328125 29.1875 26.1328125 31.375 26.3203125 C32.65902569 26.89591022 33.92891835 27.50352167 35.1875 28.1328125 C37.5204866 28.17303641 39.85456666 28.17601497 42.1875 28.1328125 C42.1875 26.8128125 42.1875 25.4928125 42.1875 24.1328125 C42.8475 24.1328125 43.5075 24.1328125 44.1875 24.1328125 C44.230221 25.79893155 44.22813832 27.46664135 44.1875 29.1328125 C43.1875 30.1328125 43.1875 30.1328125 41.296875 30.265625 C37.1334326 30.25183877 33.24824971 30.18074791 29.1875 29.1328125 C28.5275 30.4528125 27.8675 31.7728125 27.1875 33.1328125 C27.785625 33.2771875 28.38375 33.4215625 29 33.5703125 C30.74900404 34.0200564 32.47427023 34.56173591 34.1875 35.1328125 C36.24895107 35.2018035 38.31251401 35.21748977 40.375 35.1953125 C41.46167969 35.18628906 42.54835938 35.17726563 43.66796875 35.16796875 C44.91513672 35.15056641 44.91513672 35.15056641 46.1875 35.1328125 C40.56078899 38.88395317 33.58628422 37.22196726 27.1875 36.1328125 C26.48882812 36.23851562 25.79015625 36.34421875 25.0703125 36.453125 C22.440433 36.79846271 20.73914636 36.9097844 18.1875 36.1328125 C15.09255344 32.68642512 11.1875 27.95227346 11.1875 23.1328125 C9.15745128 24.8154732 8.27113037 25.74208046 7.7109375 28.359375 C7.66195313 29.15085937 7.61296875 29.94234375 7.5625 30.7578125 C7.27083333 35.04947917 7.27083333 35.04947917 6.1875 36.1328125 C3.51691149 36.27396411 0.86317762 36.17528357 -1.8125 36.1328125 C-1.97974111 31.16677537 -2.14033783 26.20058572 -2.29467773 21.23413086 C-2.34817115 19.54331627 -2.40350598 17.85255892 -2.46069336 16.16186523 C-2.54240041 13.73694203 -2.61756395 11.31189256 -2.69140625 8.88671875 C-2.71844131 8.12629776 -2.74547638 7.36587677 -2.77333069 6.58241272 C-2.82541299 4.76657916 -2.82436585 2.94935407 -2.8125 1.1328125 C-1.8125 0.1328125 -1.8125 0.1328125 0 0 Z " fill="#90849A" transform="translate(291.8125,284.8671875)"/>
<path d="M0 0 C4.80573582 2.61707707 7.09652397 6.22707191 8.8125 11.375 C8.9317902 13.37241736 8.98773935 15.37406124 9 17.375 C9.01417969 18.426875 9.02835937 19.47875 9.04296875 20.5625 C8.8125 23.375 8.8125 23.375 6.8125 26.375 C6.84730469 25.39917969 6.88210937 24.42335938 6.91796875 23.41796875 C6.95857422 21.50951172 6.95857422 21.50951172 7 19.5625 C7.03480469 18.29792969 7.06960937 17.03335937 7.10546875 15.73046875 C7.12077421 12.40903555 7.12077421 12.40903555 5.30078125 10.42578125 C4.80964844 10.07902344 4.31851563 9.73226563 3.8125 9.375 C2.8225 9.87 2.8225 9.87 1.8125 10.375 C1.41858782 13.05772918 1.41858782 13.05772918 1.3125 16.1875 C1.120784 20.12247088 0.85776982 22.96896599 -1.1875 26.375 C-1.5175 25.715 -1.8475 25.055 -2.1875 24.375 C-1.8575 23.385 -1.5275 22.395 -1.1875 21.375 C-0.9166403 17.17667461 -0.84821734 14.33297458 -2.25 10.375 C-4.1542173 7.97118907 -4.1542173 7.97118907 -7.875 8.0625 C-8.968125 8.165625 -10.06125 8.26875 -11.1875 8.375 C-14.58116878 13.74830889 -14.51462342 18.24446489 -14.1875 24.375 C-16.1875 22.375 -16.1875 22.375 -16.41796875 20.1328125 C-16.39669922 18.82957031 -16.39669922 18.82957031 -16.375 17.5 C-16.36855469 16.63632812 -16.36210937 15.77265625 -16.35546875 14.8828125 C-16.20143667 12.58307774 -15.82911776 10.58216511 -15.1875 8.375 C-16.1775 8.045 -17.1675 7.715 -18.1875 7.375 C-19.81564885 8.36764379 -19.81564885 8.36764379 -21.1875 10.375 C-21.56424518 13.16751583 -21.78941941 15.76279201 -21.875 18.5625 C-21.90916016 19.31208984 -21.94332031 20.06167969 -21.97851562 20.83398438 C-22.06084294 22.68046838 -22.12585281 24.52770994 -22.1875 26.375 C-24.83089586 21.75434403 -24.79742569 17.58224057 -24.1875 12.375 C-22.81758014 7.37012232 -21.17233285 4.17894518 -17.125 0.875 C-11.24539726 -2.12735034 -6.10981795 -2.74713829 0 0 Z " fill="#513F5F" transform="translate(247.1875,285.625)"/>
<path d="M0 0 C1.23556641 0.01740234 1.23556641 0.01740234 2.49609375 0.03515625 C3.32238281 0.04417969 4.14867188 0.05320312 5 0.0625 C5.63808594 0.07410156 6.27617188 0.08570313 6.93359375 0.09765625 C8.96578863 3.50116963 9.30250414 6.42094895 9.55859375 10.34765625 C9.63335937 11.4253125 9.708125 12.50296875 9.78515625 13.61328125 C9.85863281 14.84304688 9.85863281 14.84304688 9.93359375 16.09765625 C9.27359375 16.42765625 8.61359375 16.75765625 7.93359375 17.09765625 C7.93359375 16.43765625 7.93359375 15.77765625 7.93359375 15.09765625 C7.27359375 15.09765625 6.61359375 15.09765625 5.93359375 15.09765625 C5.60359375 14.43765625 5.27359375 13.77765625 4.93359375 13.09765625 C4.93359375 20.68765625 4.93359375 28.27765625 4.93359375 36.09765625 C2.62359375 36.09765625 0.31359375 36.09765625 -2.06640625 36.09765625 C-2.23364736 31.13161912 -2.39424408 26.16542947 -2.54858398 21.19897461 C-2.6020774 19.50816002 -2.65741223 17.81740267 -2.71459961 16.12670898 C-2.79630666 13.70178578 -2.8714702 11.27673631 -2.9453125 8.8515625 C-2.97234756 8.09114151 -2.99938263 7.33072052 -3.02723694 6.54725647 C-3.07931924 4.73142291 -3.0782721 2.91419782 -3.06640625 1.09765625 C-2.06640625 0.09765625 -2.06640625 0.09765625 0 0 Z " fill="#3D294C" transform="translate(107.06640625,284.90234375)"/>
<path d="M0 0 C6.0546875 -0.1953125 6.0546875 -0.1953125 8 0 C10 2 10 2 10.13525391 5.34814453 C10.09291058 6.77671903 10.03924547 8.20498586 9.9765625 9.6328125 C9.95153656 10.38464813 9.92651062 11.13648376 9.90072632 11.91110229 C9.81844911 14.31618839 9.72189139 16.72046257 9.625 19.125 C9.5667682 20.75387291 9.50946475 22.3827793 9.453125 24.01171875 C9.31285922 28.00828082 9.15978257 32.00417254 9 36 C6.69 36 4.38 36 2 36 C1.85474503 27.94641862 2.28586721 20.02124152 3 12 C1.35 12 -0.3 12 -2 12 C-2.28571429 3.42857143 -2.28571429 3.42857143 0 0 Z " fill="#240D33" transform="translate(129,285)"/>
<path d="M0 0 C1.65 0 3.3 0 5 0 C5.45177426 10.40754038 5.78287401 24.43425199 1 34 C-2.3 34 -5.6 34 -9 34 C-10.37470522 27.81382652 -11.23438667 22.32844017 -11 16 C-10.01 16 -9.02 16 -8 16 C-7.34 18.64 -6.68 21.28 -6 24 C-5.01 24 -4.02 24 -3 24 C-2.94465088 23.37955811 -2.88930176 22.75911621 -2.83227539 22.11987305 C-2.57939652 19.30873363 -2.32101166 16.49812678 -2.0625 13.6875 C-1.93198242 12.22280273 -1.93198242 12.22280273 -1.79882812 10.72851562 C-1.66831055 9.32182617 -1.66831055 9.32182617 -1.53515625 7.88671875 C-1.456604 7.02264404 -1.37805176 6.15856934 -1.29711914 5.26831055 C-1 3 -1 3 0 0 Z " fill="#3C294A" transform="translate(216,287)"/>
<path d="M0 0 C0.81210937 -0.020625 1.62421875 -0.04125 2.4609375 -0.0625 C7.24886166 -0.09369169 10.35774453 0.16502715 14.25 3.25 C14.84425781 3.69988281 15.43851562 4.14976562 16.05078125 4.61328125 C17.74625294 6.92729636 17.54775721 8.60756485 17.4375 11.4375 C17.41042969 12.33855469 17.38335937 13.23960937 17.35546875 14.16796875 C17.32066406 14.85503906 17.28585937 15.54210937 17.25 16.25 C16.92 16.25 16.59 16.25 16.25 16.25 C16.25 13.28 16.25 10.31 16.25 7.25 C13.19138351 7.9157158 13.19138351 7.9157158 12.1171875 10.0625 C11.78976562 10.784375 11.46234375 11.50625 11.125 12.25 C9.30960265 16.19039735 9.30960265 16.19039735 8.25 17.25 C4.91381769 17.39257189 1.59024394 17.29228157 -1.75 17.25 C-1.75 13.95 -1.75 10.65 -1.75 7.25 C-0.1 7.25 1.55 7.25 3.25 7.25 C3.58 5.93 3.91 4.61 4.25 3.25 C0.29 2.92 -3.67 2.59 -7.75 2.25 C-7.75 13.14 -7.75 24.03 -7.75 35.25 C-5.77 35.25 -3.79 35.25 -1.75 35.25 C-1.75 31.29 -1.75 27.33 -1.75 23.25 C-1.09 23.58 -0.43 23.91 0.25 24.25 C-0.08 28.21 -0.41 32.17 -0.75 36.25 C-6.90234375 36.34765625 -6.90234375 36.34765625 -8.75 36.25 C-10.4829298 34.5170702 -9.87820046 32.28785664 -9.88894653 29.97851562 C-9.8869223 29.24310547 -9.88489807 28.50769531 -9.8828125 27.75 C-9.88376923 26.99912109 -9.88472595 26.24824219 -9.88571167 25.47460938 C-9.88639338 23.88411373 -9.88453972 22.29361533 -9.88037109 20.703125 C-9.87502267 18.26035345 -9.88031634 15.81776579 -9.88671875 13.375 C-9.88605797 11.83333293 -9.8847768 10.29166597 -9.8828125 8.75 C-9.88483673 8.01458984 -9.88686096 7.27917969 -9.88894653 6.52148438 C-9.85269186 -1.26967903 -6.93671467 0.04321941 0 0 Z M0.25 8.25 C-1.16577477 9.43424326 -1.16577477 9.43424326 -0.8125 12.8125 C-0.791875 13.946875 -0.77125 15.08125 -0.75 16.25 C1.89 16.25 4.53 16.25 7.25 16.25 C7.91 14.6 8.57 12.95 9.25 11.25 C6.47132308 8.47132308 4.0786708 8.59806098 0.25 8.25 Z " fill="#74657E" transform="translate(268.75,284.75)"/>
<path d="M0 0 C1.98 0 3.96 0 6 0 C7.70450615 8.64045258 9.38641858 17.19828026 10 26 C10.99 26 11.98 26 13 26 C13.33 24.68 13.66 23.36 14 22 C14.33 22 14.66 22 15 22 C15.02687279 23.81242052 15.04633715 25.62495233 15.0625 27.4375 C15.07410156 28.44683594 15.08570313 29.45617187 15.09765625 30.49609375 C15 33 15 33 14 34 C12.1875 34.1328125 12.1875 34.1328125 10 34.125 C9.278125 34.12757813 8.55625 34.13015625 7.8125 34.1328125 C6 34 6 34 5 33 C4.67077125 30.73430763 4.38769286 28.46186715 4.125 26.1875 C3.39808044 20.19507333 2.25200858 14.49834678 0.5859375 8.68359375 C-0.06080421 5.72151672 -0.09765182 3.02276766 0 0 Z " fill="#261136" transform="translate(182,287)"/>
<path d="M0 0 C2.475 0.495 2.475 0.495 5 1 C5 1.66 5 2.32 5 3 C6.32 3 7.64 3 9 3 C10.60577639 6.21155278 10.47382856 9.516359 10 13 C8.10660602 16.42267374 7.01456033 17.70024354 3.25 18.8125 C1.64125 18.9053125 1.64125 18.9053125 0 19 C-1.9490625 19.12375 -1.9490625 19.12375 -3.9375 19.25 C-8.2001843 19.21714694 -11.21471318 17.89264341 -15 16 C-14.67 14.68 -14.34 13.36 -14 12 C-10.25 10.875 -10.25 10.875 -8 12 C-6.45976004 12.06950541 -4.91665012 12.08452357 -3.375 12.0625 C-2.55773437 12.05347656 -1.74046875 12.04445313 -0.8984375 12.03515625 C-0.27195312 12.02355469 0.35453125 12.01195312 1 12 C1.33 10.35 1.66 8.7 2 7 C1.34 7 0.68 7 0 7 C-0.33 5.68 -0.66 4.36 -1 3 C-0.34 3 0.32 3 1 3 C0.67 2.01 0.34 1.02 0 0 Z " fill="#3B2749" transform="translate(334,302)"/>
<path d="M0 0 C7.36490494 -0.33646774 14.33791396 -0.55028364 21 3 C25.58060407 7.46315269 27.10254707 11.7773188 27.25 18.0625 C27.27429789 22.00483231 26.86864436 23.26271127 25 27 C24.67 22.05 24.34 17.1 24 12 C22.68 12.33 21.36 12.66 20 13 C19.97873047 14.35544922 19.97873047 14.35544922 19.95703125 15.73828125 C19.90933594 16.91777344 19.86164063 18.09726562 19.8125 19.3125 C19.77769531 20.48425781 19.74289063 21.65601563 19.70703125 22.86328125 C19 26 19 26 16.94921875 27.91796875 C14 29 14 29 6 29 C6 21.74 6 14.48 6 7 C7.98 6.67 9.96 6.34 12 6 C11.67 5.01 11.34 4.02 11 3 C7.37 2.34 3.74 1.68 0 1 C0 0.67 0 0.34 0 0 Z M8 8 C6.79504091 8.98407311 6.79504091 8.98407311 6.88647461 10.85766602 C6.89171143 11.64842529 6.89694824 12.43918457 6.90234375 13.25390625 C6.90556641 14.10791016 6.90878906 14.96191406 6.91210938 15.84179688 C6.92048828 16.73962891 6.92886719 17.63746094 6.9375 18.5625 C6.94201172 19.46419922 6.94652344 20.36589844 6.95117188 21.29492188 C6.96299775 23.53001314 6.9794778 25.76497437 7 28 C11.38661191 28.24507539 11.38661191 28.24507539 15.3125 26.5625 C17.75674178 22.85087359 18.18090261 19.40458536 18 15 C17.20572041 11.98049847 17.20572041 11.98049847 15 10 C11.42003741 8.63099646 11.42003741 8.63099646 8 8 Z " fill="#62526E" transform="translate(145,285)"/>
<path d="M0 0 C0.66 0 1.32 0 2 0 C2.01030746 1.07297333 2.02061493 2.14594666 2.03123474 3.25143433 C2.12884449 13.34614457 2.23156661 23.44079147 2.33933926 33.53539848 C2.39458525 38.72556276 2.44800793 43.91573266 2.49731445 49.10595703 C2.54493327 54.11155339 2.59727517 59.11707981 2.65294075 64.12259293 C2.67337557 66.03560782 2.69208676 67.94864191 2.70907402 69.86169052 C2.7330931 72.53400381 2.76315102 75.20618421 2.79467773 77.87841797 C2.8004332 78.67539093 2.80618866 79.47236389 2.81211853 80.29348755 C2.78153255 84.2768315 2.78153255 84.2768315 4 88 C6.8159849 88.46898963 6.8159849 88.46898963 10.0625 88.625 C11.16722656 88.69976562 12.27195313 88.77453125 13.41015625 88.8515625 C14.69212891 88.92503906 14.69212891 88.92503906 16 89 C14 91 14 91 11.50390625 91.23046875 C10.53324219 91.21628906 9.56257812 91.20210938 8.5625 91.1875 C7.11037109 91.17783203 7.11037109 91.17783203 5.62890625 91.16796875 C3 91 3 91 0 90 C-0.15357091 78.41318255 -0.30175268 66.82631012 -0.4429636 55.23933506 C-0.50869757 49.85963213 -0.57632115 44.4799665 -0.64819336 39.1003418 C-0.71742427 33.91330093 -0.78178287 28.72622084 -0.84269524 23.53907585 C-0.8668588 21.55541711 -0.8928085 19.57177934 -0.92053413 17.58816719 C-0.95892771 14.81996061 -0.99109484 12.05174902 -1.02172852 9.28344727 C-1.03467453 8.45482681 -1.04762054 7.62620636 -1.06095886 6.7724762 C-1.07901356 4.84829488 -1.04524252 2.92373408 -1 1 C-0.67 0.67 -0.34 0.34 0 0 Z " fill="#8B62AB" transform="translate(229,106)"/>
<path d="M0 0 C3.875 1.75 3.875 1.75 5 4 C4.9885055 6.29315251 4.89274848 8.58626598 4.75 10.875 C4.68296875 12.10992187 4.6159375 13.34484375 4.546875 14.6171875 C3.99108555 18.05514224 3.43077157 19.56324131 1 22 C-0.32860925 22.35169068 -1.66158328 22.68770276 -3 23 C-3.33 23.99 -3.66 24.98 -4 26 C-10.0546875 26.9765625 -10.0546875 26.9765625 -12 27 C-12.66 26.34 -13.32 25.68 -14 25 C-12.68 24.67 -11.36 24.34 -10 24 C-10 23.34 -10 22.68 -10 22 C-9.401875 21.79375 -8.80375 21.5875 -8.1875 21.375 C-4.9502498 19.34015702 -4.30917973 17.61582973 -3 14 C-2.64816074 10.86617586 -2.43791444 7.7600973 -2.30859375 4.609375 C-2 2 -2 2 0 0 Z " fill="#240D34" transform="translate(250,294)"/>
<path d="M0 0 C3.39297837 0.56670731 4.70404813 1.4415158 6.8125 4.125 C10.60099 8.68120163 14.73703427 12.82849623 18.9375 17 C19.62497314 17.68336426 20.31244629 18.36672852 21.02075195 19.07080078 C22.67852904 20.71587858 24.33817749 22.35901036 26 24 C25.09507812 24.19916016 25.09507812 24.19916016 24.171875 24.40234375 C21.45322337 25.15046191 19.36532715 26.48881876 17 28 C16.69819824 27.53215088 16.39639648 27.06430176 16.08544922 26.58227539 C14.68266051 24.40856791 13.27886185 22.23551455 11.875 20.0625 C11.37379639 19.28575928 10.87259277 18.50901855 10.35620117 17.70874023 C7.27878414 12.94793276 4.16042319 8.22246831 0.92578125 3.56640625 C0 2 0 2 0 0 Z " fill="#392545" transform="translate(136,141)"/>
<path d="M0 0 C0.33 0 0.66 0 1 0 C1.33 40.26 1.66 80.52 2 122 C3.485 121.505 3.485 121.505 5 121 C6.2375 120.7834375 6.2375 120.7834375 7.5 120.5625 C10.23091369 120.1049928 10.23091369 120.1049928 13 118 C11.53936253 122.3819124 7.98797296 124.94711941 4 127 C2.68 127 1.36 127 0 127 C0 85.09 0 43.18 0 0 Z " fill="#4A1F6B" transform="translate(276,60)"/>
<path d="M0 0 C0.53625 0.495 1.0725 0.99 1.625 1.5 C4.62494296 3.39470082 6.51044604 3.30343947 10 3 C10.66 2.67 11.32 2.34 12 2 C11.67 2.99 11.34 3.98 11 5 C8.9375 5.6875 8.9375 5.6875 7 6 C7 6.66 7 7.32 7 8 C6.34 8.66 5.68 9.32 5 10 C7.64 10 10.28 10 13 10 C13 8.35 13 6.7 13 5 C13.763125 5.061875 14.52625 5.12375 15.3125 5.1875 C18.04525312 5.25898085 18.04525312 5.25898085 19.8125 3.5 C20.204375 3.005 20.59625 2.51 21 2 C19.64844718 6.42326378 17.80109562 8.40412982 14 11 C8.7935264 12.7354912 3.85065911 12.66344383 -1.3125 10.8125 C-4.20829149 8.85952435 -5.9997704 6.84648058 -8 4 C-7.67 3.34 -7.34 2.68 -7 2 C-6.4225 2.495 -5.845 2.99 -5.25 3.5 C-2.89599371 5.36980013 -2.89599371 5.36980013 1 5 C0.67 3.35 0.34 1.7 0 0 Z " fill="#54415F" transform="translate(233,310)"/>
<path d="M0 0 C1.485 0.99 1.485 0.99 3 2 C3 2.99 3 3.98 3 5 C3.99 5 4.98 5 6 5 C6.33 4.01 6.66 3.02 7 2 C9 4 9 4 9.25 7.875 C9.18064077 11.05396475 8.80254921 13.29617618 7 16 C5.35 16 3.7 16 2 16 C-1.00974609 10.98375652 -1.37937519 7.69062784 -1 2 C-0.67 1.34 -0.34 0.68 0 0 Z M8 0 C8.99 0.495 8.99 0.495 10 1 C9.67 1.66 9.34 2.32 9 3 C8.67 2.01 8.34 1.02 8 0 Z " fill="#3E294A" transform="translate(117,302)"/>
<path d="M0 0 C3.5625 0.1875 3.5625 0.1875 5.5625 2.1875 C6.06494141 4.25048828 6.06494141 4.25048828 6.4140625 6.7578125 C6.54296875 7.65371094 6.671875 8.54960937 6.8046875 9.47265625 C6.93101562 10.40980469 7.05734375 11.34695313 7.1875 12.3125 C7.3215625 13.25738281 7.455625 14.20226562 7.59375 15.17578125 C7.9241356 17.51207945 8.2467175 19.84919071 8.5625 22.1875 C8.8925 20.2075 9.2225 18.2275 9.5625 16.1875 C9.8925 16.1875 10.2225 16.1875 10.5625 16.1875 C10.70535714 24.75892857 10.70535714 24.75892857 9.5625 28.1875 C8.9025 28.1875 8.2425 28.1875 7.5625 28.1875 C7.44132813 27.57003906 7.32015625 26.95257813 7.1953125 26.31640625 C6.94394531 25.04603516 6.94394531 25.04603516 6.6875 23.75 C6.50703125 22.83734375 6.3265625 21.9246875 6.140625 20.984375 C5.62184874 18.47461958 5.03875243 15.99090291 4.4375 13.5 C3.55619653 9.63052697 3.39401987 6.14678311 3.5625 2.1875 C1.5825 2.1875 -0.3975 2.1875 -2.4375 2.1875 C-2.28603516 2.83710693 -2.13457031 3.48671387 -1.97851562 4.15600586 C-1.28802794 7.14342738 -0.61269113 10.13408578 0.0625 13.125 C0.30097656 14.14658203 0.53945312 15.16816406 0.78515625 16.22070312 C2.15938697 22.36547761 2.82507848 27.89218101 2.5625 34.1875 C2.2325 34.1875 1.9025 34.1875 1.5625 34.1875 C0.70135057 30.29286008 -0.15291795 26.39677958 -1.00097656 22.49926758 C-1.29012686 21.17496569 -1.58111885 19.85106448 -1.87402344 18.52758789 C-2.29591904 16.61973006 -2.71053782 14.7102677 -3.125 12.80078125 C-3.37636719 11.65391846 -3.62773437 10.50705566 -3.88671875 9.32543945 C-4.38036411 6.51301754 -4.62876581 4.03160973 -4.4375 1.1875 C-3.4375 0.1875 -3.4375 0.1875 0 0 Z " fill="#877A8F" transform="translate(184.4375,284.8125)"/>
<path d="M0 0 C2.66370892 0.25663641 5.28903667 0.56895843 7.9375 0.9375 C14.10855578 2.19134603 14.10855578 2.19134603 20 1 C19.42655063 3.86724686 19.1385485 4.8614515 17 7 C11.7907059 9.00357465 6.04484966 8.66938768 1 6.5 C0.01 6.005 -0.98 5.51 -2 5 C-1.125 1.125 -1.125 1.125 0 0 Z " fill="#230E33" transform="translate(321,313)"/>
<path d="M0 0 C4.88765533 1.35768204 6.52591098 3.67034421 9 8 C10.06924537 11.20773612 10.16684956 13.62984818 10.1875 17 C10.20167969 18.051875 10.21585937 19.10375 10.23046875 20.1875 C10 23 10 23 8 26 C8.03480469 25.02417969 8.06960937 24.04835938 8.10546875 23.04296875 C8.14607422 21.13451172 8.14607422 21.13451172 8.1875 19.1875 C8.22230469 17.92292969 8.25710937 16.65835937 8.29296875 15.35546875 C8.30827421 12.03403555 8.30827421 12.03403555 6.48828125 10.05078125 C5.99714844 9.70402344 5.50601563 9.35726563 5 9 C4.01 9.495 4.01 9.495 3 10 C2.60608782 12.68272918 2.60608782 12.68272918 2.5 15.8125 C2.308284 19.74747088 2.04526982 22.59396599 0 26 C-0.33 25.34 -0.66 24.68 -1 24 C-0.67 23.01 -0.34 22.02 0 21 C0.26926355 16.8264149 0.35715279 13.98742242 -1.0625 10.0625 C-3.78105237 7.16855715 -6.13820495 7.21859217 -10 7 C-10 6.34 -10 5.68 -10 5 C-7.36 5 -4.72 5 -2 5 C-1.67 5.66 -1.34 6.32 -1 7 C1.02463255 7.65213292 1.02463255 7.65213292 3 8 C3.33 6.35 3.66 4.7 4 3 C3.01 3 2.02 3 1 3 C0.67 2.01 0.34 1.02 0 0 Z " fill="#7D6E86" transform="translate(246,286)"/>
<path d="M0 0 C3.06553085 0.85432827 5.93405674 1.71322972 8.8125 3.0625 C8.8125 4.3825 8.8125 5.7025 8.8125 7.0625 C4.43479572 8.47466267 1.26710073 7.59079727 -3.00390625 6.33984375 C-5.71268389 5.99579507 -6.81524059 6.82543221 -9.1875 8.0625 C-10.1775 7.7325 -11.1675 7.4025 -12.1875 7.0625 C-4.99441976 -0.60884355 -4.99441976 -0.60884355 0 0 Z " fill="#342042" transform="translate(333.1875,284.9375)"/>
<path d="M0 0 C0.99 0 1.98 0 3 0 C3.66 3.63 4.32 7.26 5 11 C6.65 10.34 8.3 9.68 10 9 C11 10 11 10 11.0625 13.5625 C11.041875 14.696875 11.02125 15.83125 11 17 C8.03 17 5.06 17 2 17 C0.52960153 11.11840613 -0.22018299 6.05503233 0 0 Z " fill="#210B32" transform="translate(205,303)"/>
<path d="M0 0 C0.33 0.66 0.66 1.32 1 2 C1.66 2 2.32 2 3 2 C3 8.93 3 15.86 3 23 C1.35 23 -0.3 23 -2 23 C-2.31918373 15.14453364 -1.35709504 7.73059495 0 0 Z " fill="#230B32" transform="translate(133,297)"/>
<path d="M0 0 C3.3674103 1.68370515 4.89294371 3.4204562 7 6.5 C6.34 6.5 5.68 6.5 5 6.5 C4.34 8.15 3.68 9.8 3 11.5 C1.02 10.84 -0.96 10.18 -3 9.5 C-3 8.84 -3 8.18 -3 7.5 C-3.99 7.5 -4.98 7.5 -6 7.5 C-6.33 5.85 -6.66 4.2 -7 2.5 C-4.46757496 -0.03242504 -3.61859399 -0.603099 0 0 Z " fill="#301A3F" transform="translate(161,165.5)"/>
<path d="M0 0 C3.5 0.125 3.5 0.125 4.5 1.125 C4.41036938 2.81641656 4.25422324 4.50459602 4.0625 6.1875 C3.96066406 7.10660156 3.85882813 8.02570313 3.75390625 8.97265625 C3.67011719 9.68292969 3.58632812 10.39320313 3.5 11.125 C3.17 11.125 2.84 11.125 2.5 11.125 C2.5 8.155 2.5 5.185 2.5 2.125 C0.85 2.125 -0.8 2.125 -2.5 2.125 C-3.16 10.045 -3.82 17.965 -4.5 26.125 C-5.82 26.455 -7.14 26.785 -8.5 27.125 C-9.5 26.125 -9.5 26.125 -9.59765625 24.27734375 C-9.56510417 22.2265625 -9.53255208 20.17578125 -9.5 18.125 C-9.17 18.125 -8.84 18.125 -8.5 18.125 C-8.5 20.105 -8.5 22.085 -8.5 24.125 C-7.84 24.125 -7.18 24.125 -6.5 24.125 C-6.561875 22.6090625 -6.561875 22.6090625 -6.625 21.0625 C-6.63703508 14.39506747 -5.63330897 7.6849563 -4.5 1.125 C-3.5 0.125 -3.5 0.125 0 0 Z " fill="#6F5E78" transform="translate(218.5,284.875)"/>
<path d="M0 0 C0.66 0 1.32 0 2 0 C2.042721 1.66611905 2.04063832 3.33382885 2 5 C1 6 1 6 -0.890625 6.1328125 C-5.0540674 6.11902627 -8.93925029 6.04793541 -13 5 C-13.66 6.32 -14.32 7.64 -15 9 C-14.401875 9.144375 -13.80375 9.28875 -13.1875 9.4375 C-11.43849596 9.8872439 -9.71322977 10.42892341 -8 11 C-5.93854893 11.068991 -3.87498599 11.08467727 -1.8125 11.0625 C-0.72582031 11.05347656 0.36085938 11.04445313 1.48046875 11.03515625 C2.31191406 11.02355469 3.14335937 11.01195312 4 11 C-1.62671101 14.75114067 -8.60121578 13.08915476 -15 12 C-18.00209991 11.91564347 -20.99758936 11.93995179 -24 12 C-24.33 11.01 -24.66 10.02 -25 9 C-24.34 8.34 -23.68 7.68 -23 7 C-23 8.32 -23 9.64 -23 11 C-21.02 10.67 -19.04 10.34 -17 10 C-17 9.34 -17 8.68 -17 8 C-17.66 8 -18.32 8 -19 8 C-18.67 6.68 -18.34 5.36 -18 4 C-18 4.66 -18 5.32 -18 6 C-17.2575 5.319375 -16.515 4.63875 -15.75 3.9375 C-13 2 -13 2 -10.8125 2.1875 C-9.52847431 2.76309772 -8.25858165 3.37070917 -7 4 C-4.6670134 4.04022391 -2.33293334 4.04320247 0 4 C0 2.68 0 1.36 0 0 Z " fill="#8B7F94" transform="translate(334,309)"/>
<path d="M0 0 C1.8272911 2.74093665 2.93698178 5.13825324 4.125 8.1875 C4.47820312 9.08855469 4.83140625 9.98960937 5.1953125 10.91796875 C5.46085937 11.60503906 5.72640625 12.29210937 6 13 C6.66 12.01 7.32 11.02 8 10 C7.67 11.98 7.34 13.96 7 16 C6.01 16 5.02 16 4 16 C3.34 14.68 2.68 13.36 2 12 C1.34 13.98 0.68 15.96 0 18 C-0.66 17.01 -1.32 16.02 -2 15 C-2.33 14.67 -2.66 14.34 -3 14 C-3 18.95 -3 23.9 -3 29 C-3.33 29 -3.66 29 -4 29 C-4.33 21.41 -4.66 13.82 -5 6 C-4.01 6.495 -4.01 6.495 -3 7 C-3 7.66 -3 8.32 -3 9 C-2.01 9.33 -1.02 9.66 0 10 C0 6.7 0 3.4 0 0 Z " fill="#81728A" transform="translate(116,291)"/>
<path d="M0 0 C3.73665662 0.55023295 5.18446617 1.94502744 7.5625 4.8125 C8.43068359 5.84310547 8.43068359 5.84310547 9.31640625 6.89453125 C10.9203625 8.90040693 12.47324382 10.93493465 14 13 C13.34 13 12.68 13 12 13 C12 14.65 12 16.3 12 18 C12.66 18 13.32 18 14 18 C14.66 20.31 15.32 22.62 16 25 C11.75826546 21.30233592 9.17389902 16.70902499 6.3125 11.9375 C5.81427734 11.12216797 5.31605469 10.30683594 4.80273438 9.46679688 C1.13893517 3.41680552 1.13893517 3.41680552 0 0 Z " fill="#6A5D73" transform="translate(136,141)"/>
<path d="M0 0 C0.99 0.33 1.98 0.66 3 1 C2.319375 1.495 1.63875 1.99 0.9375 2.5 C-1.35706854 4.45282429 -3.08594897 6.19432278 -5 8.46875 C-9.71010533 13.91115322 -14.82802208 18.93652213 -19.9375 24 C-20.9175531 24.97502386 -21.8973724 25.9502828 -22.87695312 26.92578125 C-25.24902313 29.28616618 -27.6234086 31.64416905 -30 34 C-30.66 33.67 -31.32 33.34 -32 33 C-31.18732666 32.19780029 -30.37465332 31.39560059 -29.53735352 30.5690918 C-26.52627629 27.59418893 -23.52180178 24.61269303 -20.51928711 21.62915039 C-19.21834871 20.33827539 -17.91562171 19.04920036 -16.61108398 17.76196289 C-14.73729955 15.9124115 -12.87002274 14.05650249 -11.00390625 12.19921875 C-10.41847549 11.62411057 -9.83304474 11.04900238 -9.22987366 10.45646667 C-5.94317724 7.17155255 -5.94317724 7.17155255 -4 3 C-2.125 1.25 -2.125 1.25 0 0 Z " fill="#BC9CD4" transform="translate(223,63)"/>
<path d="M0 0 C6.0546875 -0.1953125 6.0546875 -0.1953125 8 0 C10 2 10 2 10.13525391 5.34814453 C10.09291058 6.77671903 10.03924547 8.20498586 9.9765625 9.6328125 C9.95153656 10.38464813 9.92651062 11.13648376 9.90072632 11.91110229 C9.81844911 14.31618839 9.72189139 16.72046257 9.625 19.125 C9.5667682 20.75387291 9.50946475 22.3827793 9.453125 24.01171875 C9.31285922 28.00828082 9.15978257 32.00417254 9 36 C6.69 36 4.38 36 2 36 C2 35.67 2 35.34 2 35 C3.98 35 5.96 35 8 35 C8 24.11 8 13.22 8 2 C1.50669817 2.31885384 1.50669817 2.31885384 -0.9375 4.5625 C-1.288125 5.036875 -1.63875 5.51125 -2 6 C-1.34 4.02 -0.68 2.04 0 0 Z " fill="#887C90" transform="translate(129,285)"/>
<path d="M0 0 C0.7734375 0.495 0.7734375 0.495 1.5625 1 C-0.4375 2 -0.4375 2 -4.125 1.1875 C-7.66491233 0.71508026 -9.52151491 1.16545669 -12.4375 3.25 C-14.75830214 5.47081293 -15.38335763 6.64392857 -15.87109375 9.8515625 C-15.87464856 12.60298515 -15.74388534 15.26684823 -15.4375 18 C-18.4375 16 -18.4375 16 -19.3125 12.1875 C-19.66330172 8.2356112 -19.0238108 6.12140959 -16.4375 3 C-11.67662818 -1.16576284 -6.00805331 -2.46484238 0 0 Z " fill="#84778C" transform="translate(337.4375,285)"/>
<path d="M0 0 C0.33 0 0.66 0 1 0 C1.33 13.2 1.66 26.4 2 40 C4.31 40 6.62 40 9 40 C5.86243419 43.60239038 5.02137798 43.9957244 0 45 C0 30.15 0 15.3 0 0 Z " fill="#73677A" transform="translate(175,52)"/>
<path d="M0 0 C0.46233492 3.9760803 0.30954571 5.56851204 -2.0625 8.875 C-5.65037512 11.47048413 -7.6677071 11.4247346 -12 11 C-11.67 10.01 -11.34 9.02 -11 8 C-10.34 8 -9.68 8 -9 8 C-8.79375 7.4225 -8.5875 6.845 -8.375 6.25 C-6.75383896 3.59719102 -3.37164412 0 0 0 Z " fill="#392346" transform="translate(170,308)"/>
<path d="M0 0 C1.875 0.3125 1.875 0.3125 4 1 C4.66 1.99 5.32 2.98 6 4 C4.35 4 2.7 4 1 4 C0.67 5.32 0.34 6.64 0 8 C-0.66 8 -1.32 8 -2 8 C-2.33 8.99 -2.66 9.98 -3 11 C-2.34 11.33 -1.68 11.66 -1 12 C-1.99 12 -2.98 12 -4 12 C-5.98 8.37 -7.96 4.74 -10 1 C-9.34 1 -8.68 1 -8 1 C-8 1.66 -8 2.32 -8 3 C-6.35 3.33 -4.7 3.66 -3 4 C-2.01 2.68 -1.02 1.36 0 0 Z " fill="#382446" transform="translate(166,172)"/>
<path d="M0 0 C0.83050873 0.00444122 1.66101746 0.00888245 2.51669312 0.01345825 C3.92792953 0.01368484 3.92792953 0.01368484 5.36767578 0.01391602 C6.38542084 0.02423859 7.40316589 0.03456116 8.45175171 0.04519653 C9.49213593 0.04802643 10.53252014 0.05085632 11.60443115 0.05377197 C14.93646615 0.064992 18.26823507 0.09009989 21.60018921 0.11550903 C23.85539367 0.12553648 26.11060233 0.13466273 28.36581421 0.14285278 C33.90236375 0.16493725 39.43875748 0.19843265 44.97518921 0.24050903 C44.97518921 0.57050903 44.97518921 0.90050903 44.97518921 1.24050903 C43.72383179 1.25509155 42.47247437 1.26967407 41.18319702 1.28469849 C36.53870118 1.34268831 31.89468982 1.41992133 27.25057983 1.50296021 C25.24089422 1.5362063 23.2311153 1.56423922 21.22128296 1.58694458 C18.33155573 1.62049625 15.44268328 1.67281241 12.55331421 1.72879028 C11.65526062 1.73518021 10.75720703 1.74157013 9.8319397 1.74815369 C3.80492669 1.83163893 3.80492669 1.83163893 -1.02481079 5.24050903 C-1.02481079 4.58050903 -1.02481079 3.92050903 -1.02481079 3.24050903 C-2.01481079 2.91050903 -3.00481079 2.58050903 -4.02481079 2.24050903 C-2.02481079 0.24050903 -2.02481079 0.24050903 0 0 Z " fill="#5D1B8D" transform="translate(228.02481079101563,59.759490966796875)"/>
<path d="M0 0 C1.32 0.33 2.64 0.66 4 1 C4 1.66 4 2.32 4 3 C4.99 3.33 5.98 3.66 7 4 C7 5.32 7 6.64 7 8 C7.66 8 8.32 8 9 8 C9.33 8.99 9.66 9.98 10 11 C6.625 11.125 6.625 11.125 3 11 C0.60236815 8.60236815 0.65719414 7.66726502 0.375 4.375 C0.30023438 3.55773437 0.22546875 2.74046875 0.1484375 1.8984375 C0.09945313 1.27195312 0.05046875 0.64546875 0 0 Z " fill="#271038" transform="translate(308,309)"/>
<path d="M0 0 C0 3 0 3 -2 6 C-1.55836847 10.04011067 0.80297236 12.92147887 3.0390625 16.1953125 C3.35617187 16.79085938 3.67328125 17.38640625 4 18 C3.67 18.66 3.34 19.32 3 20 C2.4121875 19.319375 2.4121875 19.319375 1.8125 18.625 C-0.30913516 16.72284434 -2.35138998 15.99702177 -5 15 C-4.94011859 12.87420987 -4.85137256 10.74921587 -4.75 8.625 C-4.70359375 7.44164062 -4.6571875 6.25828125 -4.609375 5.0390625 C-4 2 -4 2 -1.953125 0.5859375 C-0.98632812 0.29589844 -0.98632812 0.29589844 0 0 Z M-4 16 C-3.67 16 -3.34 16 -3 16 C-3 17.65 -3 19.3 -3 21 C-3.66 20.01 -4.32 19.02 -5 18 C-4.67 17.34 -4.34 16.68 -4 16 Z " fill="#63546E" transform="translate(311,293)"/>
<path d="M0 0 C0.33 0 0.66 0 1 0 C1 4.29 1 8.58 1 13 C1.99 13.33 2.98 13.66 4 14 C3.03644647 23.41002278 3.03644647 23.41002278 2 28 C1.67 28 1.34 28 1 28 C0.67 25.03 0.34 22.06 0 19 C-0.66 19.99 -1.32 20.98 -2 22 C-1.85811015 19.45805839 -1.71160845 16.91652007 -1.5625 14.375 C-1.52318359 13.66214844 -1.48386719 12.94929688 -1.44335938 12.21484375 C-1.19690319 8.08196318 -0.76529947 4.07730976 0 0 Z " fill="#5F4F6A" transform="translate(196,291)"/>
<path d="M0 0 C15.51 0 31.02 0 47 0 C47 0.66 47 1.32 47 2 C45.02422974 1.97643433 45.02422974 1.97643433 43.00854492 1.95239258 C38.12774761 1.89814614 33.246977 1.8636691 28.3659668 1.83520508 C26.25231446 1.8201064 24.13869352 1.79962574 22.02514648 1.77368164 C18.98934185 1.73734603 15.95395094 1.72028456 12.91796875 1.70703125 C11.97100632 1.69154739 11.02404388 1.67606354 10.04838562 1.66011047 C9.16769913 1.65988388 8.28701263 1.65965729 7.37963867 1.65942383 C6.60464523 1.65276199 5.82965179 1.64610016 5.03117371 1.63923645 C2.4985077 2.08907172 1.6146196 3.05299358 0 5 C0 3.35 0 1.7 0 0 Z " fill="#5C1B8C" transform="translate(75,60)"/>
<path d="M0 0 C2.30379799 1.95822829 3.56319054 3.9795901 4.9375 6.625 C6.60332878 10.09309979 6.60332878 10.09309979 9.25 10.9375 C9.8275 10.958125 10.405 10.97875 11 11 C10.79375 10.401875 10.5875 9.80375 10.375 9.1875 C10 7 10 7 12 4 C15 9.625 15 9.625 15 13 C12.03 13 9.06 13 6 13 C4.99491199 11.21118264 3.99607264 9.41885304 3 7.625 C2.1646875 6.12839844 2.1646875 6.12839844 1.3125 4.6015625 C0 2 0 2 0 0 Z " fill="#6D5F77" transform="translate(272,308)"/>
<path d="M0 0 C0.66 0 1.32 0 2 0 C2.38486346 6.28610317 1.67131368 10.32345843 -1 16 C-1 17.32 -1 18.64 -1 20 C-1.66 20 -2.32 20 -3 20 C-3 20.66 -3 21.32 -3 22 C-4.32 22.33 -5.64 22.66 -7 23 C-6.06865779 20.59403263 -5.11162446 18.22793544 -3.9765625 15.91015625 C-1.61456834 11.01027474 -0.66033359 7.54788468 -1 2 C-0.67 1.34 -0.34 0.68 0 0 Z " fill="#7C6C85" transform="translate(293,169)"/>
<path d="M0 0 C0.66 0.33 1.32 0.66 2 1 C1.01 2.485 1.01 2.485 0 4 C0.66 4.33 1.32 4.66 2 5 C1.19175781 5.48984375 0.38351563 5.9796875 -0.44921875 6.484375 C-3.84099533 9.82940428 -3.77657121 12.73095667 -3.8125 17.25 C-3.83763672 17.99507813 -3.86277344 18.74015625 -3.88867188 19.5078125 C-3.94733102 21.33797793 -3.9765808 23.16904453 -4 25 C-6.63587049 20.39249839 -6.63700086 16.19459036 -6 11 C-4.65431036 6.80424125 -3.13486037 3.13486037 0 0 Z " fill="#8F8596" transform="translate(229,287)"/>
<path d="M0 0 C0.33 0 0.66 0 1 0 C1 10.89 1 21.78 1 33 C0.67 33 0.34 33 0 33 C0 26.07 0 19.14 0 12 C-0.66 12 -1.32 12 -2 12 C-2.66 12.66 -3.32 13.32 -4 14 C-4 12.68 -4 11.36 -4 10 C-4.66 9.67 -5.32 9.34 -6 9 C-4.68 9 -3.36 9 -2 9 C-1.34 6.03 -0.68 3.06 0 0 Z " fill="#2D1A3E" transform="translate(136,287)"/>
<path d="M0 0 C4.91935902 4.11619836 9.52647956 8.40410362 14 13 C13.01 13.33 12.02 13.66 11 14 C9.0625 12.6875 9.0625 12.6875 7 11 C5.68163705 10.30419733 4.35208914 9.62775567 3 9 C3 7.68 3 6.36 3 5 C2.34 5 1.68 5 1 5 C0.67 3.35 0.34 1.7 0 0 Z " fill="#7D4AA7" transform="translate(146,84)"/>
<path d="M0 0 C2.97 0.495 2.97 0.495 6 1 C4.89904638 4.30286086 4.3103981 4.78510901 1.5625 6.6875 C0.63630859 7.34298828 0.63630859 7.34298828 -0.30859375 8.01171875 C-2 9 -2 9 -4 9 C-4.33 8.01 -4.66 7.02 -5 6 C-4.01 5.34 -3.02 4.68 -2 4 C-2 3.34 -2 2.68 -2 2 C-1.34 2 -0.68 2 0 2 C0 1.34 0 0.68 0 0 Z " fill="#544162" transform="translate(212,66)"/>
<path d="M0 0 C1.65 0 3.3 0 5 0 C5 0.66 5 1.32 5 2 C5.99 2 6.98 2 8 2 C7.67 3.65 7.34 5.3 7 7 C5.35 6.67 3.7 6.34 2 6 C2 5.34 2 4.68 2 4 C1.01 4 0.02 4 -1 4 C-0.67 2.68 -0.34 1.36 0 0 Z " fill="#200A30" transform="translate(242,287)"/>
<path d="M0 0 C0.33 0.66 0.66 1.32 1 2 C-4.2688172 8.92473118 -4.2688172 8.92473118 -9 10 C-12.00868396 10.14206265 -14.99097165 10.11800111 -18 10 C-18 9.67 -18 9.34 -18 9 C-12.555 8.505 -12.555 8.505 -7 8 C-7 6.35 -7 4.7 -7 3 C-6.21625 3.061875 -5.4325 3.12375 -4.625 3.1875 C-3.75875 3.125625 -2.8925 3.06375 -2 3 C-1.34 2.01 -0.68 1.02 0 0 Z " fill="#675871" transform="translate(253,312)"/>
<path d="M0 0 C3.5 0.125 3.5 0.125 4.5 1.125 C4.41036938 2.81641656 4.25422324 4.50459602 4.0625 6.1875 C3.96066406 7.10660156 3.85882813 8.02570313 3.75390625 8.97265625 C3.67011719 9.68292969 3.58632812 10.39320313 3.5 11.125 C3.17 11.125 2.84 11.125 2.5 11.125 C2.5 8.155 2.5 5.185 2.5 2.125 C0.85 2.125 -0.8 2.125 -2.5 2.125 C-2.83 3.445 -3.16 4.765 -3.5 6.125 C-3.83 6.125 -4.16 6.125 -4.5 6.125 C-4.542721 4.45888095 -4.54063832 2.79117115 -4.5 1.125 C-3.5 0.125 -3.5 0.125 0 0 Z " fill="#988C9F" transform="translate(218.5,284.875)"/>
<path d="M0 0 C0.33 1.32 0.66 2.64 1 4 C-4.22544009 8.98239637 -4.22544009 8.98239637 -7.75 9.0625 C-10 8 -10 8 -11.3125 5.9375 C-11.539375 5.298125 -11.76625 4.65875 -12 4 C-9.525 5.485 -9.525 5.485 -7 7 C-4.69 4.69 -2.38 2.38 0 0 Z " fill="#A47AC1" transform="translate(183,104)"/>
<path d="M0 0 C1.32 0.99 2.64 1.98 4 3 C1.8125 5.5625 1.8125 5.5625 -1 8 C-3.8125 7.8125 -3.8125 7.8125 -6 7 C-5.1875 5.0625 -5.1875 5.0625 -4 3 C-3.01 2.67 -2.02 2.34 -1 2 C-0.67 1.34 -0.34 0.68 0 0 Z " fill="#72379C" transform="translate(178,152)"/>
<path d="M0 0 C0 3.58912412 -0.66436554 4.10857029 -3 6.6875 C-3.556875 7.31011719 -4.11375 7.93273437 -4.6875 8.57421875 C-5.120625 9.04472656 -5.55375 9.51523438 -6 10 C-6.66 9.01 -7.32 8.02 -8 7 C-6.41641358 3.83282717 -5.54736301 2.26731682 -2.3125 0.6875 C-1.549375 0.460625 -0.78625 0.23375 0 0 Z " fill="#53435D" transform="translate(354,208)"/>
<path d="M0 0 C2.72574271 0.37330824 3.80822085 0.79194601 5.703125 2.84765625 C6.21359375 3.57855469 6.7240625 4.30945313 7.25 5.0625 C8.03117188 6.16271484 8.03117188 6.16271484 8.828125 7.28515625 C9.21484375 7.85105469 9.6015625 8.41695312 10 9 C9.34 9 8.68 9 8 9 C7.34 9.66 6.68 10.32 6 11 C4.9944239 9.54550599 3.99569565 8.08627557 3 6.625 C2.443125 5.81289062 1.88625 5.00078125 1.3125 4.1640625 C0 2 0 2 0 0 Z " fill="#8B8390" transform="translate(136,141)"/>
<path d="M0 0 C0.66 0 1.32 0 2 0 C2.4375 2.6875 2.4375 2.6875 2 6 C-0.11124923 8.04775301 -2.45859507 9.53480226 -5 11 C-3.55049545 7.2089881 -1.84827434 3.6125362 0 0 Z " fill="#200831" transform="translate(282,292)"/>
<path d="M0 0 C3.875 1.75 3.875 1.75 5 4 C5.07092842 6.2072923 5.08415025 8.41667452 5.0625 10.625 C5.05347656 11.81351562 5.04445312 13.00203125 5.03515625 14.2265625 C5.02355469 15.14179688 5.01195312 16.05703125 5 17 C3.68 17.33 2.36 17.66 1 18 C1.350625 17.195625 1.70125 16.39125 2.0625 15.5625 C3.22056279 11.16186141 3.04367051 7.41876627 2 3 C1.34 2.01 0.68 1.02 0 0 Z " fill="#827089" transform="translate(159,294)"/>
<path d="M0 0 C0.66 0 1.32 0 2 0 C2.33 4.62 2.66 9.24 3 14 C2.01 14 1.02 14 0 14 C0 9.38 0 4.76 0 0 Z " fill="#897D94" transform="translate(297,286)"/>
<path d="M0 0 C0.99 0.103125 1.98 0.20625 3 0.3125 C5 3.3125 5 3.3125 4.625 5.5 C4.41875 6.098125 4.2125 6.69625 4 7.3125 C3.773125 6.673125 3.54625 6.03375 3.3125 5.375 C2.14749104 3.04056339 2.14749104 3.04056339 -0.625 2.5625 C-1.40875 2.48 -2.1925 2.3975 -3 2.3125 C-3.33 3.6325 -3.66 4.9525 -4 6.3125 C-4.625 4.4375 -4.625 4.4375 -5 2.3125 C-3 0.3125 -3 0.3125 0 0 Z " fill="#938B9C" transform="translate(202,284.6875)"/>
<path d="M0 0 C0.66 0.66 1.32 1.32 2 2 C4.89223503 2.46396693 4.89223503 2.46396693 8.125 2.625 C9.76855469 2.73714844 9.76855469 2.73714844 11.4453125 2.8515625 C12.28835937 2.90054688 13.13140625 2.94953125 14 3 C12 5 12 5 9.3984375 5.1953125 C8.40070313 5.17210937 7.40296875 5.14890625 6.375 5.125 C4.87066406 5.09792969 4.87066406 5.09792969 3.3359375 5.0703125 C2.56507813 5.04710937 1.79421875 5.02390625 1 5 C0.67 3.35 0.34 1.7 0 0 Z " fill="#8D60B0" transform="translate(231,192)"/>
<path d="M0 0 C1.27617187 0.02320313 2.55234375 0.04640625 3.8671875 0.0703125 C5.78917969 0.09738281 5.78917969 0.09738281 7.75 0.125 C9.23113281 0.15980469 9.23113281 0.15980469 10.7421875 0.1953125 C10.7421875 0.5253125 10.7421875 0.8553125 10.7421875 1.1953125 C10.13890625 1.23269531 9.535625 1.27007812 8.9140625 1.30859375 C2.74850978 1.75784591 2.74850978 1.75784591 -2.2578125 5.1953125 C-2.2578125 4.5353125 -2.2578125 3.8753125 -2.2578125 3.1953125 C-3.2478125 2.8653125 -4.2378125 2.5353125 -5.2578125 2.1953125 C-3.2578125 0.1953125 -3.2578125 0.1953125 0 0 Z " fill="#602A89" transform="translate(229.2578125,59.8046875)"/>
<path d="M0 0 C0.99 0.495 0.99 0.495 2 1 C1.67 1.66 1.34 2.32 1 3 C0.67 2.01 0.34 1.02 0 0 Z M-1 2 C1 4 1 4 1.3125 6.5 C1.209375 7.325 1.10625 8.15 1 9 C0.01 9.66 -0.98 10.32 -2 11 C-3.0326802 8.21176345 -3.04509293 7.1322726 -2.0625 4.25 C-1.711875 3.5075 -1.36125 2.765 -1 2 Z " fill="#241034" transform="translate(125,302)"/>
<path d="M0 0 C0.85178626 2.38500154 1.09806909 3.6665651 0.375 6.125 C-1.41247034 8.56245955 -3.1632534 9.10418528 -6 10 C-2.28571429 2.28571429 -2.28571429 2.28571429 0 0 Z " fill="#776881" transform="translate(306,288)"/>
<path d="M0 0 C2.9375 0.8125 2.9375 0.8125 6 2 C6.33 2.99 6.66 3.98 7 5 C4.69 5 2.38 5 0 5 C0 3.35 0 1.7 0 0 Z " fill="#200C31" transform="translate(311,315)"/>
<path d="M0 0 C1.65 0 3.3 0 5 0 C5.66 1.32 6.32 2.64 7 4 C6 5 6 5 3.4375 5.0625 C2.2309375 5.0315625 2.2309375 5.0315625 1 5 C0.67 3.35 0.34 1.7 0 0 Z " fill="#20092D" transform="translate(328,316)"/>
<path d="M0 0 C-2.64 1.65 -5.28 3.3 -8 5 C-8.66 4.01 -9.32 3.02 -10 2 C-4.5 -1.125 -4.5 -1.125 0 0 Z " fill="#584963" transform="translate(330,234)"/>
<path d="M0 0 C0.66 0.33 1.32 0.66 2 1 C0.82421875 3.015625 0.82421875 3.015625 -1 5 C-3.48046875 5.171875 -3.48046875 5.171875 -6.1875 4.75 C-7.08855469 4.62109375 -7.98960937 4.4921875 -8.91796875 4.359375 C-9.60503906 4.24078125 -10.29210937 4.1221875 -11 4 C-11 3.67 -11 3.34 -11 3 C-8.02148438 2.70703125 -8.02148438 2.70703125 -5.04296875 2.4140625 C-2.70011858 2.07334609 -2.70011858 2.07334609 0 0 Z " fill="#291638" transform="translate(162,311)"/>
<path d="M0 0 C0.66 0 1.32 0 2 0 C2 0.66 2 1.32 2 2 C3.32 2 4.64 2 6 2 C6 4.31 6 6.62 6 9 C3.03134491 6.45543849 1.6380249 3.51005335 0 0 Z " fill="#665870" transform="translate(156,173)"/>
<path d="M0 0 C3.79588866 0.54226981 5.47211993 2.20127563 8 5 C7.67 5.99 7.34 6.98 7 8 C5.83035398 6.8572081 4.66435444 5.71068285 3.5 4.5625 C2.8503125 3.92441406 2.200625 3.28632813 1.53125 2.62890625 C0 1 0 1 0 0 Z " fill="#8D5DB0" transform="translate(146,132)"/>
<path d="M0 0 C2.15377564 2.62198774 3.40072174 4.64404172 4 8 C3.01 8.33 2.02 8.66 1 9 C0 8 0 8 -0.09765625 6.15234375 C-0.06510417 4.1015625 -0.03255208 2.05078125 0 0 Z " fill="#574963" transform="translate(361,104)"/>
<path d="M0 0 C1.13643966 3.40931897 0.86747764 4.00335456 -0.4375 7.1875 C-0.72496094 7.90292969 -1.01242188 8.61835938 -1.30859375 9.35546875 C-1.53675781 9.89816406 -1.76492187 10.44085938 -2 11 C-2.33 11 -2.66 11 -3 11 C-3.33 8.69 -3.66 6.38 -4 4 C-3.34 4 -2.68 4 -2 4 C-1.34 2.68 -0.68 1.36 0 0 Z " fill="#745D85" transform="translate(129,300)"/>
<path d="M0 0 C2.31 0 4.62 0 7 0 C5.25 2 5.25 2 3 4 C1.68 4 0.36 4 -1 4 C-0.67 2.68 -0.34 1.36 0 0 Z " fill="#5D4C66" transform="translate(177,92)"/>
<path d="M0 0 C0.66 0.33 1.32 0.66 2 1 C1.3125 2.9375 1.3125 2.9375 0 5 C-2.625 5.75 -2.625 5.75 -5 6 C-3.35 4.02 -1.7 2.04 0 0 Z " fill="#1E062D" transform="translate(326,287)"/>
<path d="M0 0 C2.5 1.1875 2.5 1.1875 5 3 C5.3125 5.6875 5.3125 5.6875 5 8 C2.27573689 5.64722731 1.1858237 3.37503669 0 0 Z " fill="#685B72" transform="translate(167,190)"/>
<path d="M0 0 C1.98 1.65 3.96 3.3 6 5 C5.67 5.66 5.34 6.32 5 7 C2 6 2 6 0 4 C0 2.68 0 1.36 0 0 Z " fill="#8454A7" transform="translate(124,62)"/>
<path d="M0 0 C1.67542976 0.28604898 3.34385343 0.61781233 5 1 C4.0409375 1.433125 4.0409375 1.433125 3.0625 1.875 C0.84793921 2.82823451 0.84793921 2.82823451 0 5 C-0.66 5 -1.32 5 -2 5 C-1.125 1.125 -1.125 1.125 0 0 Z " fill="#2E1939" transform="translate(321,313)"/>
<path d="M0 0 C0.66 0.33 1.32 0.66 2 1 C1.01 2.485 1.01 2.485 0 4 C0.66 4.33 1.32 4.66 2 5 C-0.475 6.485 -0.475 6.485 -3 8 C-1.125 1.125 -1.125 1.125 0 0 Z " fill="#64536E" transform="translate(229,287)"/>
<path d="M0 0 C0.66 0 1.32 0 2 0 C2.33 0.99 2.66 1.98 3 3 C2.34 3 1.68 3 1 3 C1 3.66 1 4.32 1 5 C-0.32 5.33 -1.64 5.66 -3 6 C-1.125 1.125 -1.125 1.125 0 0 Z " fill="#675872" transform="translate(289,186)"/>
<path d="M0 0 C0.66 0 1.32 0 2 0 C2 0.66 2 1.32 2 2 C2.66 2 3.32 2 4 2 C4.33 3.65 4.66 5.3 5 7 C3.02 5.35 1.04 3.7 -1 2 C-0.67 1.34 -0.34 0.68 0 0 Z " fill="#8854AA" transform="translate(167,151)"/>
</svg>
